<?xml version="1.0" encoding="UTF-8" standalone="no"?>
<svg
   xmlns:dc="http://purl.org/dc/elements/1.1/"
   xmlns:cc="http://creativecommons.org/ns#"
   xmlns:rdf="http://www.w3.org/1999/02/22-rdf-syntax-ns#"
   xmlns:svg="http://www.w3.org/2000/svg"
   xmlns="http://www.w3.org/2000/svg"
   xmlns:xlink="http://www.w3.org/1999/xlink"
   xmlns:sodipodi="http://sodipodi.sourceforge.net/DTD/sodipodi-0.dtd"
   xmlns:inkscape="http://www.inkscape.org/namespaces/inkscape"
   version="1.0"
   width="900.000000pt"
   height="720.000000pt"
   viewBox="0 0 900.000000 720.000000"
   preserveAspectRatio="xMidYMid meet"
   id="svg2"
   inkscape:version="0.91 r"
   sodipodi:docname="qua.svg">
  <defs
     id="defs36" />
  <sodipodi:namedview
     pagecolor="#ffffff"
     bordercolor="#666666"
     borderopacity="1"
     objecttolerance="10"
     gridtolerance="10"
     guidetolerance="10"
     inkscape:pageopacity="0"
     inkscape:pageshadow="2"
     inkscape:window-width="1366"
     inkscape:window-height="716"
     id="namedview34"
     showgrid="false"
     inkscape:zoom="0.52444444"
     inkscape:cx="562.5"
     inkscape:cy="450"
     inkscape:window-x="0"
     inkscape:window-y="25"
     inkscape:window-maximized="1"
     inkscape:current-layer="svg2" />
  <metadata
     id="metadata4">
Created by potrace 1.10, written by Peter Selinger 2001-2011
<rdf:RDF>
  <cc:Work
     rdf:about="">
    <dc:format>image/svg+xml</dc:format>
    <dc:type
       rdf:resource="http://purl.org/dc/dcmitype/StillImage" />
  </cc:Work>
</rdf:RDF>
</metadata>
  <image
     sodipodi:absref="/home/florian/Téléchargements/Quake_III_Arena_logo2.png"
     y="3.1864672"
     x="3.186424"
     id="image3426"
     xlink:href="file:///home/florian/T%C3%A9l%C3%A9chargements/Quake_III_Arena_logo2.png"
     preserveAspectRatio="none"
     height="710.57623"
     width="893.62714" />
  <rect
     style="fill:#000000;fill-opacity:1"
     id="rect3342"
     width="895.28809"
     height="715.28815"
     x="3.186424"
     y="3.1864672"
     ry="0.56025678" />
  <g
     id="g3429"
     transform="matrix(0.99146499,0,0,0.99355977,4.603468,4.5967923)">
    <path
       style="fill:#fefefe"
       d="m 3.186424,358.47458 0,-355.2881128 446.813566,0 446.81357,0 0,355.2881128 0,355.28812 -446.81357,0 -446.813566,0 0,-355.28812 z"
       id="path3445"
       inkscape:connector-curvature="0" />
    <path
       style="fill:#d0d0d0"
       d="m 441.93092,682.69933 c -5.01457,-6.41667 -6.28628,-20.44472 -16.6852,-184.05248 -3.78765,-59.59187 -9.07649,-91.77528 -10.03508,-61.06515 -0.23807,7.63314 -3.22104,56.5347 -6.62845,108.67015 -6.8529,104.85426 -7.98833,109.22139 -28.39682,109.22139 -12.30521,0 -19.35579,-7.45988 -22.29886,-23.59335 -1.11392,-6.10652 -5.27547,-56.69344 -9.2478,-112.41538 -3.97235,-55.72195 -8.31992,-108.14351 -9.66128,-116.49237 L 336.5386,387.79243 292.91078,382.9299 C 161.51751,368.2855 74.675077,345.09979 34.409384,313.9136 -13.655313,276.68704 15.115061,236.35308 102.53297,218.40932 c 31.58021,-6.48228 45.91129,-5.71702 52.95217,2.82757 5.52253,6.70195 5.47832,7.49124 -0.79221,14.14237 -4.07895,4.32654 -17.99615,10.62647 -36.07282,16.32916 -29.102714,9.18112 -45.803013,16.99509 -48.116275,22.51333 -1.51866,3.62273 19.205363,10.88598 46.131345,16.16786 47.76761,9.37022 116.03692,15.5841 230.05939,20.93999 33.6592,1.58106 61.0658,4.12631 63.79021,5.92421 2.62712,1.73372 5.51731,2.56323 6.4226,1.84339 0.90528,-0.71985 5.5763,-63.03857 10.38,-138.48604 4.8037,-75.44746 9.54788,-139.971796 10.54263,-143.387397 2.35073,-8.07157 15.53515,-14.839726 25.05267,-12.860665 4.11955,0.856612 9.13,4.873455 11.13438,8.926318 3.15377,6.37693 10.04458,108.323044 16.53929,244.690204 2.29687,48.22684 2.51357,49.02318 11.41428,41.9457 7.40726,-5.88995 5.14764,-5.66501 126.05665,-12.54841 107.10885,-6.09777 195.97581,-19.9597 201.51271,-31.43298 2.8722,-5.9517 -9.82809,-12.88365 -42.68445,-23.29761 -15.35922,-4.86817 -30.6748,-10.72123 -34.03463,-13.00682 -7.01194,-4.77 -8.09364,-17.26078 -1.9199,-22.16989 11.12394,-8.84531 73.82774,2.62817 105.48427,19.30141 29.98035,15.79042 38.88144,34.80233 26.6163,56.85005 -9.43656,16.96303 -17.72656,24.12717 -43.28088,37.40295 -40.41516,20.99614 -115.12588,38.94336 -207.4777,49.84085 -28.23733,3.33199 -53.08257,7.46388 -55.21167,9.182 -2.3567,1.90176 -5.52412,29.18451 -8.09655,69.74034 -8.37056,131.96588 -13.48116,181.89405 -19.34716,189.01286 -7.67497,9.31404 -24.12343,9.09776 -31.96651,-0.42035 -6.36741,-7.72727 -7.70743,-21.53454 -15.56189,-160.34552 -2.40347,-42.47603 -5.44069,-75.57611 -6.7494,-73.55575 -1.30867,2.0204 -4.26162,38.64711 -6.56212,81.39271 -6.85695,127.41134 -11.01999,177.2148 -15.42791,184.56765 -5.89319,9.83046 -24.42978,11.1654 -31.38887,2.26052 z"
       id="path3443"
       inkscape:connector-curvature="0" />
    <path
       style="fill:#a09f9f"
       d="m 446.33731,681.67752 c -3.27804,-3.14072 -5.62022,-17.46636 -7.39634,-45.23887 -1.42955,-22.3535 -5.80941,-86.84776 -9.73303,-143.32061 -9.06127,-130.42055 -9.09796,-124.82096 1.98208,-302.57261 9.9313,-159.322753 10.4458,-162.377767 27.34656,-162.377767 12.06148,0 14.96406,10.325364 17.55624,62.452989 1.21464,24.426058 4.55436,83.756398 7.42158,131.845198 2.86721,48.0888 5.18338,113.66444 5.14701,145.72364 -0.0932,82.12926 -13.29452,300.24214 -18.71876,309.2712 -5.11983,8.52236 -16.91277,10.62905 -23.60534,4.21683 z m -78.43435,-35.60837 c -5.33859,-6.47873 -13.83628,-92.11571 -21.10114,-212.65098 -1.33418,-22.13612 -3.70054,-42.21289 -5.25859,-44.61503 -2.05937,-3.17508 -14.83078,-5.6943 -46.7769,-9.22686 C 145.22496,363.04017 44.164129,332.12353 22.837876,296.38768 3.6633729,264.25745 31.514469,237.94745 100.88157,222.66241 c 38.37402,-8.45571 52.40629,-6.98846 52.40629,5.47976 0,6.76464 -9.3333,11.85319 -37.3854,20.38268 -47.613431,14.47729 -61.44887,27.26325 -38.717502,35.78059 36.859002,13.81094 136.304602,24.89773 281.124772,31.34149 24.34624,1.08327 45.21191,3.35892 48.53966,5.29377 9.05894,5.26717 9.65819,26.5436 3.38301,120.10906 -3.14847,46.94469 -7.16117,110.73462 -8.91711,141.75543 -2.47287,43.68553 -4.44579,57.92223 -8.75102,63.14691 -7.07089,8.58099 -17.64554,8.6312 -24.66131,0.11714 z M 50.449232,259.1221 c -3.009683,-2.39318 -12.355498,5.47931 -12.355498,10.40771 0,8.7519 4.726307,8.62595 9.420328,-0.25104 2.557369,-4.83631 3.878195,-9.40681 2.93517,-10.15666 z M 521.7926,646.43019 c -6.19454,-7.51751 -7.69469,-22.63261 -14.32599,-144.34443 -6.74319,-123.76612 -6.75746,-175.20945 -0.0499,-180.54293 3.5204,-2.79928 17.56557,-4.5976 46.25219,-5.92196 170.04391,-7.85045 283.80226,-24.12981 283.80226,-40.61346 0,-6.09744 -19.0255,-16.33066 -46.40501,-24.95979 -31.65214,-9.97573 -40.86327,-14.96204 -40.86327,-22.12072 0,-12.83231 19.03632,-13.70533 62.98124,-2.88835 101.62073,25.01379 90.81524,85.66566 -21.59272,121.20144 -34.60435,10.93954 -107.85448,25.02005 -165.30947,31.77666 -28.79853,3.38664 -53.36619,6.93267 -54.59479,7.8801 -1.2286,0.94739 -4.03462,28.57735 -6.2356,61.39986 -9.59228,143.04779 -14.52175,192.83965 -19.71669,199.15564 -6.58055,8.00065 -17.33955,7.99071 -23.94223,-0.0222 z"
       id="path3441"
       inkscape:connector-curvature="0" />
    <path
       style="fill:#645d5b"
       d="m 448.84418,677.15717 c -3.46221,-4.36394 -5.63785,-17.5207 -6.79869,-41.11375 -0.93897,-19.08286 -5.33209,-88.91837 -9.76253,-155.19001 l -8.05531,-120.49389 9.69316,-158.46279 c 5.33122,-87.15453 11.09631,-161.273166 12.81134,-164.70808 4.097,-8.205736 16.50679,-8.205736 20.26041,0 1.57125,3.434914 4.79148,43.717092 7.15603,89.51595 2.36455,45.79886 5.73042,103.88014 7.47966,129.06951 4.56993,65.80691 3.9313,154.58958 -1.85682,258.13902 -7.38056,132.03853 -9.26905,154.39253 -13.62506,161.27935 -5.54171,8.76138 -11.38366,9.42474 -17.30219,1.96469 z m -74.85042,-29.56411 c -7.21569,-3.64137 -10.10479,-26.19459 -18.67813,-145.80738 -4.472,-62.39204 -9.73802,-115.08759 -11.70228,-117.10124 -2.09522,-2.14791 -20.8853,-5.47114 -45.46016,-8.04015 C 102.05147,356.14423 -9.6139844,307.75351 27.498321,259.35481 31.256,254.45437 40.512106,247.19206 48.067444,243.21635 c 18.589204,-9.78185 61.180196,-20.92498 82.530666,-21.59259 16.40809,-0.51306 17.45365,-0.13601 17.45365,6.29402 0,6.0809 -4.03437,8.141 -36.36207,18.5679 -70.757688,22.82201 -69.73535,37.02142 3.65803,50.80698 47.35227,8.89423 207.6799,22.32228 266.52256,22.32228 29.77217,0 30.13981,1.14972 26.01404,81.34844 -9.51831,185.02231 -13.4826,235.7469 -18.94203,242.37228 -5.84774,7.09665 -8.06882,7.72923 -14.94853,4.2574 z M 90.454699,301.65827 c 0,-0.71641 -8.639559,-5.69713 -19.19902,-11.06828 -12.411151,-6.31303 -19.199021,-11.66213 -19.199021,-15.12956 0,-3.02465 8.676659,-11.51311 19.89583,-19.4643 21.828571,-15.47022 21.433811,-16.14208 -5.717384,-9.73068 -20.42483,4.82306 -35.122832,14.53884 -35.122832,23.21715 0,9.37692 17.825125,22.38129 38.429454,28.03628 22.100632,6.06569 20.912973,5.83061 20.912973,4.13939 z M 525.84314,645.06441 c -3.67015,-3.22632 -6.23668,-12.7801 -7.64306,-28.45081 -4.24783,-47.33284 -12.34839,-212.0758 -12.34839,-251.13285 0,-35.39535 0.71927,-40.41671 6.10878,-42.64665 3.35983,-1.39014 24.17331,-3.37659 46.25219,-4.41434 148.52327,-6.98072 249.37059,-19.30136 274.89506,-33.58425 18.39856,-10.29539 4.03941,-22.92702 -44.09777,-38.7925 -31.62945,-10.42471 -38.76681,-15.5389 -31.45844,-22.54113 5.3286,-5.10537 14.48654,-4.80487 41.62282,1.36579 70.56956,16.04718 96.55424,43.99943 70.06117,75.36625 -29.52164,34.95255 -132.53095,64.19549 -278.55796,79.07875 -9.9829,1.01746 -19.64346,3.30268 -21.46793,5.07829 -1.82447,1.77558 -5.89707,40.70014 -9.05024,86.499 -3.15322,45.79886 -7.22362,100.13296 -9.04536,120.74245 -1.82174,20.60948 -3.32604,40.19296 -3.3429,43.51882 -0.0314,5.88557 -8.27202,14.77063 -13.70189,14.77063 -1.4852,0 -5.18694,-2.18585 -8.22608,-4.85745 z M 853.00342,286.02148 c 13.80721,-6.47773 18.50594,-15.61439 12.56758,-24.43746 -5.2501,-7.80044 -18.88636,-8.01917 -16.11755,-0.25853 1.08936,3.05326 2.86621,8.03531 3.94862,11.07122 1.3426,3.76569 -1.03801,7.73507 -7.49118,12.4906 -11.53799,8.50268 -9.3568,8.85148 7.09253,1.13417 z"
       id="path3439"
       inkscape:connector-curvature="0" />
    <path
       style="fill:#8d3329"
       d="m 450.47788,672.83736 c -2.18276,-3.24303 -3.96862,-13.20828 -3.96862,-22.14502 0,-8.93675 -3.08238,-59.29351 -6.84975,-111.90393 -12.00421,-167.63565 -12.15344,-190.41786 -2.17885,-332.64929 4.96574,-70.80817 9.0286,-136.45734 9.0286,-145.887053 0,-10.524245 1.93122,-19.225548 5.0011,-22.5329 10.10515,-10.88685 13.39202,-0.877139 16.18802,49.298125 1.47156,26.407908 5.3478,91.106938 8.61387,143.775628 6.54153,105.48892 5.48478,204.14205 -3.59769,335.85829 -2.78961,40.45566 -5.11451,79.35041 -5.16645,86.43277 -0.0611,8.33545 -2.38819,15.12942 -6.59804,19.26342 l -6.50362,6.38639 -3.96857,-5.89643 z m 75.24741,-32.23348 c -2.71023,-5.616 -5.5571,-42.7634 -11.25383,-146.84519 -6.0213,-110.01244 -6.5395,-162.0202 -1.63831,-164.42884 1.9199,-0.94351 3.49073,-0.23982 3.49073,1.56391 0,2.25339 1.36512,2.41096 4.36342,0.50368 2.39987,-1.52663 31.0675,-3.62561 63.70584,-4.66438 32.63833,-1.0388 62.48408,-2.62561 66.32389,-3.52626 6.98146,-1.63758 6.98146,-1.63758 0,-3.80747 -5.62078,-1.74699 -4.73019,-2.20792 4.56943,-2.36497 7.34771,-0.12407 10.71267,0.88333 9.24733,2.76861 -2.61082,3.35908 59.02834,0.98665 76.94224,-2.96144 5.75971,-1.2694 20.4634,-3.1159 32.67492,-4.10335 28.63901,-2.31579 67.11213,-13.7174 86.98113,-25.77707 l 15.659,-9.50437 -2.44271,7.89458 c -1.34351,4.34201 -4.74924,10.72976 -7.56829,14.19498 -6.72978,8.27233 -31.75406,22.57587 -43.06012,24.61264 -4.91621,0.88564 -16.70842,4.59723 -26.20492,8.24804 -9.4965,3.65078 -19.7501,6.63778 -22.78574,6.63778 -3.03565,0 -8.63893,1.73745 -12.45176,3.86101 -9.90554,5.51691 -41.81361,12.62225 -49.50279,11.02337 -3.57946,-0.7443 -14.29426,1.7287 -23.81073,5.49556 -11.34588,4.49101 -31.12265,8.41827 -57.44601,11.40758 -22.07888,2.50731 -45.09075,5.15731 -51.13754,5.88887 -6.04675,0.73159 -12.5749,2.85843 -14.50699,4.72631 -1.93208,1.8679 -5.27515,29.00189 -7.42904,60.29777 -7.53809,109.52759 -14.40153,192.95182 -16.27068,197.7678 -2.22583,5.73505 -13.83565,6.50499 -16.44847,1.09085 z m -153.76111,-5.9483 c -1.6071,-3.05326 -5.0365,-34.90428 -7.62086,-70.78006 -2.5844,-35.87577 -6.3835,-85.21363 -8.44247,-109.63969 -4.69658,-55.71592 -4.73628,-73.6467 -0.15059,-68.00436 2.64265,3.25158 3.39554,2.51302 3.43728,-3.37197 0.0866,-12.22279 -9.67032,-14.32252 -69.76117,-15.01256 -37.94754,-0.43578 -59.8401,-1.97681 -73.30535,-5.16 -10.55947,-2.49623 -29.1944,-6.30315 -41.41098,-8.45974 -12.21657,-2.15663 -24.60968,-5.50344 -27.54023,-7.43738 -2.93054,-1.93396 -11.78511,-4.95432 -19.67681,-6.71197 -23.62431,-5.26163 -65.660584,-20.22642 -78.229702,-27.84954 -14.396646,-8.73154 -25.115088,-22.18177 -25.08073,-31.473 0.02534,-6.8484 0.143675,-6.82015 9.042505,2.15871 15.801927,15.94402 44.648871,24.03904 115.676397,32.46106 42.06761,4.98813 61.13439,5.51232 53.25662,1.46418 -3.82587,-1.96602 -1.47551,-2.61542 8.72683,-2.41122 7.67961,0.15378 11.19474,0.85367 7.81141,1.55542 -8.65458,1.79512 -3.92996,6.40717 6.56354,6.40717 4.92899,0 7.78795,-1.20795 6.56944,-2.77569 -1.34575,-1.73144 4.81473,-2.65214 16.37496,-2.44729 14.81614,0.26258 16.43241,0.69528 8.06015,2.15796 -8.68833,1.51788 -9.38297,2.17117 -4.07791,3.83514 10.10902,3.17072 36.61453,2.49612 30.2584,-0.77012 -3.80507,-1.9553 -0.94302,-2.69067 10.47219,-2.69067 9.90295,0 13.98753,0.86735 11.05219,2.3469 -9.00956,4.54128 7.3881,6.26676 53.44552,5.62397 l 45.29869,-0.63225 2.05821,8.08486 c 2.0004,7.85772 0.86364,37.44728 -6.8685,178.78969 -5.44575,99.54712 -6.82487,110.29256 -14.3563,111.85866 -3.44343,0.71602 -6.80074,4.25685 -7.46074,7.8685 -1.13616,6.21768 -1.35524,6.27164 -4.12199,1.01529 z M 393.07661,461.9218 c -0.88504,-2.70067 -1.66738,-1.1631 -1.73853,3.41679 -0.0712,4.57988 0.65298,6.7895 1.6092,4.91027 0.95618,-1.87922 1.01437,-5.6264 0.12915,-8.32706 z M 825.25358,255.77078 c -5.75971,-3.01231 -21.83529,-8.77552 -35.72355,-12.80713 -27.99332,-8.12618 -35.9798,-13.16702 -29.28957,-18.48682 3.21489,-2.55636 10.96585,-1.90541 34.21394,2.8734 32.00578,6.579 58.95192,17.18469 43.88942,17.27437 -8.58444,0.0511 -10.011,2.77283 -3.97071,7.57581 8.00746,6.36722 1.27101,9.0046 -9.11953,3.57037 z m -703.3823,-19.27391 c 0,-1.28388 2.37081,-3.05774 5.26847,-3.94191 2.89766,-0.88416 4.8612,-3.04752 4.36342,-4.80746 -0.49779,-1.75993 0.66577,-3.64798 2.58567,-4.19564 5.27759,-1.50549 13.41605,3.45351 10.92582,6.65741 -2.92251,3.76009 -23.14338,9.2537 -23.14338,6.2876 z M 85.218603,233.5686 c 9.596316,-3.27898 15.107767,-3.27898 8.726827,0 -2.879853,1.47988 -7.59234,2.62202 -10.472193,2.5381 -3.452525,-0.10061 -2.858001,-0.96516 1.745366,-2.5381 z"
       id="path3437"
       inkscape:connector-curvature="0" />
    <path
       style="fill:#4c312e"
       d="m 450.47788,672.83736 c -2.18276,-3.24303 -3.96862,-13.20828 -3.96862,-22.14502 0,-8.93675 -3.08238,-59.29351 -6.84975,-111.90393 -12.00421,-167.63565 -12.15344,-190.41786 -2.17885,-332.64929 4.96574,-70.80817 9.0286,-136.45734 9.0286,-145.887053 0,-10.524245 1.93122,-19.225548 5.0011,-22.5329 10.10515,-10.88685 13.39202,-0.877139 16.18802,49.298125 1.47156,26.407908 5.3478,91.106938 8.61387,143.775628 6.54153,105.48892 5.48478,204.14205 -3.59769,335.85829 -2.78961,40.45566 -5.11451,79.35041 -5.16645,86.43277 -0.0611,8.33545 -2.38819,15.12942 -6.59804,19.26342 l -6.50362,6.38639 -3.96857,-5.89643 z m 8.43329,-210.57649 c 2.88341,-13.57356 6.63082,-27.17729 8.32755,-30.23055 10.81638,-19.46376 13.68493,-83.9994 4.34181,-97.6808 -2.96649,-4.34392 -4.57746,-41.24459 -5.63481,-129.0695 -1.40449,-116.661347 -3.5885,-144.639035 -10.58787,-135.633683 -3.5387,4.552887 -7.67528,78.045023 -10.55444,187.515623 -1.1644,44.27223 -3.64429,90.47534 -5.51081,102.67357 -2.2487,14.69552 -2.19264,29.04519 0.16615,42.5301 1.95789,11.19332 3.55982,27.34089 3.55982,35.88349 0,15.97375 6.6342,51.88419 9.20725,49.83817 0.79355,-0.63099 3.80197,-12.25288 6.68538,-25.82642 z m -6.65128,-96.78178 c -1.24905,-2.58825 -0.80332,-6.78442 0.99053,-9.32482 3.03303,-4.29529 3.42074,-4.29041 5.53375,0.07 1.24972,2.57889 0.80399,6.77504 -0.99053,9.32481 -3.03892,4.31798 -3.4185,4.31317 -5.53375,-0.0699 z m 73.4654,275.12479 c -4.12018,-8.5376 -16.38287,-214.41985 -16.38287,-275.05695 0,-44.84278 5.62064,-49.57788 11.68976,-9.84804 0.81624,5.3432 3.56613,17.8338 6.11088,27.75689 l 4.62682,18.04197 2.33875,-19.63597 c 4.28484,-35.97578 6.54907,-42.71495 14.8132,-44.08934 4.14999,-0.69017 27.18082,-2.64215 51.1796,-4.33768 64.7155,-4.57219 129.04527,-10.64559 144.86533,-13.67678 7.67961,-1.47142 24.95873,-4.73086 38.39805,-7.24314 33.48606,-6.25976 63.64845,-16.35765 79.9222,-26.75672 l 13.63368,-8.71202 -2.50753,8.0999 c -1.37912,4.45495 -4.81403,10.93508 -7.63308,14.4003 -6.72978,8.27233 -31.75406,22.57587 -43.06012,24.61264 -4.91621,0.88564 -16.70842,4.59723 -26.20492,8.24804 -9.4965,3.65078 -19.7501,6.63778 -22.78574,6.63778 -3.03565,0 -8.63893,1.73745 -12.45176,3.86101 -9.90554,5.51691 -41.81361,12.62225 -49.50279,11.02337 -3.57946,-0.7443 -14.29426,1.7287 -23.81073,5.49556 -11.34588,4.49101 -31.12265,8.41827 -57.44601,11.40758 -22.07888,2.50731 -45.09075,5.15731 -51.13754,5.88887 -6.04675,0.73159 -12.5749,2.85843 -14.50699,4.72631 -1.93208,1.8679 -5.27515,29.00189 -7.42904,60.29777 -7.53809,109.52759 -14.40153,192.95182 -16.27068,197.7678 -2.22583,5.73505 -13.83565,6.50499 -16.44847,1.09085 z m 9.28147,-149.52906 -2.52236,-14.63348 -2.71059,9.71491 c -1.49086,5.3432 -1.77148,13.93976 -0.62358,19.10348 3.47875,15.64953 8.78414,2.79961 5.85653,-14.18491 z M 371.96418,634.65558 c -1.6071,-3.05326 -5.0365,-34.90428 -7.62086,-70.78006 -2.5844,-35.87577 -6.3835,-85.21363 -8.44247,-109.63969 -2.05901,-24.42606 -3.59249,-50.65631 -3.40772,-58.28945 0.33511,-13.84056 0.34802,-13.85571 4.81434,-5.55138 2.59386,4.82287 5.4608,27.01602 6.81276,52.73808 1.28385,24.42606 3.60938,48.78272 5.16781,54.12592 l 2.83354,9.71491 4.59219,-7.63314 c 2.52572,-4.19823 5.91093,-7.63314 7.52267,-7.63314 1.6117,0 2.9304,-2.58023 2.9304,-5.73386 0,-3.15362 1.4993,-7.96147 3.33176,-10.68409 1.83249,-2.72265 2.40703,-13.72128 1.27677,-24.44144 -1.73702,-16.4751 -2.96552,-19.30183 -7.93904,-18.26764 -10.87307,2.26094 -14.30512,-5.1255 -8.69824,-18.72035 2.80424,-6.79938 6.65791,-14.53139 8.56367,-17.18229 6.12854,-8.52458 3.84281,-18.76026 -5.77147,-25.84532 -9.37802,-6.91094 -9.09286,-6.87308 -62.32344,-8.27388 -7.67961,-0.20207 -19.06812,-1.30297 -25.3078,-2.44636 -7.40748,-1.35739 -11.34488,-1.03902 -11.34488,0.91731 0,1.64796 3.53437,3.10361 7.85415,3.23482 6.5776,0.19985 6.15209,0.67005 -2.61805,2.89318 -12.49047,3.1662 -41.56418,1.13895 -68.06925,-4.74637 -10.55947,-2.34468 -29.1944,-6.02755 -41.41098,-8.18414 -12.21657,-2.15663 -24.60968,-5.50344 -27.54023,-7.43738 -2.93054,-1.93396 -11.78511,-4.95432 -19.67681,-6.71197 -23.62431,-5.26163 -65.660584,-20.22642 -78.229702,-27.84954 -14.396646,-8.73154 -25.115088,-22.18177 -25.08073,-31.473 0.02534,-6.8484 0.143675,-6.82015 9.042505,2.15871 10.07376,10.16434 26.773501,17.59697 50.248164,22.36419 36.625423,7.43784 95.053603,17.22381 119.043613,19.93827 33.92447,3.83853 145.85003,11.0526 171.48009,11.0526 18.09287,0 20.15136,-0.5907 20.15136,-5.78268 0,-3.32777 1.81431,-5.30181 4.2737,-4.64994 9.42839,2.49903 9.4175,6.44262 -0.51879,188.07667 -5.44575,99.54712 -6.82487,110.29256 -14.3563,111.85866 -3.44343,0.71602 -6.80074,4.25685 -7.46074,7.8685 -1.13616,6.21768 -1.35524,6.27164 -4.12199,1.01529 z M 282.44491,322.39063 c -3.80507,-1.9553 -0.94302,-2.69067 10.47219,-2.69067 11.4152,0 14.27726,0.73537 10.47219,2.69067 -2.87985,1.47989 -7.59234,2.69067 -10.47219,2.69067 -2.87985,0 -7.59234,-1.21078 -10.47219,-2.69067 z m -50.6156,-2.77569 c -1.34575,-1.73144 4.81473,-2.65214 16.37496,-2.44729 15.76615,0.2794 16.96923,0.64468 8.06015,2.44729 -15.39608,3.11516 -22.01388,3.11516 -24.43511,0 z m 418.88772,0 c -5.81727,-1.98769 -5.05528,-2.41804 4.56943,-2.58058 6.86317,-0.11602 10.67536,0.93135 9.39349,2.58058 -2.51504,3.23585 -4.49288,3.23585 -13.96292,0 z m -448.55894,-2.77568 c -3.84085,-1.97371 -1.51543,-2.65004 8.72683,-2.53809 10.97021,0.11991 12.46657,0.66386 6.98146,2.53809 -9.18496,3.13841 -9.60087,3.13841 -15.70829,0 z m 623.09549,-61.06848 c -5.75971,-3.01231 -21.83529,-8.77552 -35.72355,-12.80713 -27.99332,-8.12618 -35.9798,-13.16702 -29.28957,-18.48682 3.21489,-2.55636 10.96585,-1.90541 34.21394,2.8734 32.00578,6.579 58.95192,17.18469 43.88942,17.27437 -8.58444,0.0511 -10.011,2.77283 -3.97071,7.57581 8.00746,6.36722 1.27101,9.0046 -9.11953,3.57037 z m -703.3823,-19.27391 c 0,-1.28388 2.37081,-3.05774 5.26847,-3.94191 2.89766,-0.88416 4.8612,-3.04752 4.36342,-4.80746 -0.49779,-1.75993 0.66577,-3.64798 2.58567,-4.19564 5.27759,-1.50549 13.41605,3.45351 10.92582,6.65741 -2.92251,3.76009 -23.14338,9.2537 -23.14338,6.2876 z M 85.218603,233.5686 c 9.596316,-3.27898 15.107767,-3.27898 8.726827,0 -2.879853,1.47988 -7.59234,2.62202 -10.472193,2.5381 -3.452525,-0.10061 -2.858001,-0.96516 1.745366,-2.5381 z"
       id="path3435"
       inkscape:connector-curvature="0" />
    <path
       style="fill:#6e1308"
       d="m 450.00481,653.39147 c 0.003,-10.30474 -1.57617,-38.09632 -3.50853,-61.75906 -10.29302,-126.04418 -10.15318,-122.77017 -5.40491,-126.54577 3.76004,-2.98986 4.97921,-1.14972 6.9113,10.43156 1.29024,7.73398 3.09292,13.46781 4.00593,12.7418 0.913,-0.72598 4.01915,-12.42559 6.90257,-25.99913 2.88341,-13.57356 6.7051,-27.17729 8.49267,-30.23055 1.78756,-3.05325 3.85561,-8.67402 4.59565,-12.49059 0.74007,-3.81657 0.94885,19.53804 0.46395,51.89912 -0.48486,32.36109 -1.78746,60.00387 -2.89465,61.42835 -1.10719,1.42448 -1.96661,11.16998 -1.90982,21.65661 0.19932,36.80882 -0.69846,52.38116 -3.05906,53.06173 -1.31028,0.37777 -1.87271,12.10056 -1.24979,26.05064 1.28822,28.84975 -0.76087,38.49119 -8.18053,38.49119 -4.05553,0 -5.16855,-4.03763 -5.16478,-18.7359 z m -4.51742,-162.3454 c -0.83495,-3.45271 -1.54982,-1.28143 -1.58857,4.82509 -0.0387,6.10651 0.64443,8.93147 1.51812,6.27766 0.8737,-2.65381 0.90539,-7.65005 0.0705,-11.10275 z m 81.40995,144.30343 c -4.25244,-8.19741 -10.76409,-130.45189 -7.11111,-133.50917 1.54954,-1.29683 4.34589,5.573 6.21413,15.26629 2.20922,11.46226 3.55235,14.40638 3.84166,8.42071 0.2447,-5.06191 2.06997,-11.61808 4.05626,-14.56928 4.00698,-5.95343 0.69906,-33.85937 -3.75421,-31.67088 -1.51344,0.74377 -3.54728,-0.21678 -4.51962,-2.13462 -0.97238,-1.9178 -1.89194,1.8216 -2.04351,8.30978 -0.47519,20.3401 -6.19605,12.85335 -8.48398,-11.10276 -2.99602,-31.37086 -3.67989,-110.13282 -0.97489,-112.28373 1.211,-0.96294 2.33942,7.51307 2.50764,18.83555 0.16825,11.3225 1.59784,26.83166 3.17702,34.4648 1.99826,9.65882 2.41806,3.75135 1.38072,-19.42981 -1.49058,-33.3101 1.62225,-36.7567 7.52064,-8.32707 l 2.87943,13.87844 2.4299,-19.63597 c 4.48981,-36.28188 6.66489,-42.7179 14.90441,-44.1018 4.14999,-0.69706 34.24955,-3.22357 66.88789,-5.61452 88.9071,-6.51296 151.16816,-12.53193 174.16852,-16.83744 11.31699,-2.11846 21.9457,-3.1788 23.61937,-2.35631 4.24029,2.08385 0.088,6.66323 -6.04176,6.66323 -2.78745,0 -11.727,2.31482 -19.86568,5.14405 -34.10661,11.85638 -63.27774,20.01585 -86.70983,24.25366 -19.29941,3.49043 -25.34675,5.76638 -26.76291,10.07247 -1.54461,4.69672 -3.9248,5.33965 -15.28301,4.12826 -7.98505,-0.85164 -13.45349,-0.28587 -13.45349,1.39187 0,1.77721 -5.83214,2.13128 -15.70829,0.95364 -9.61661,-1.14669 -15.70829,-0.80848 -15.70829,0.87212 0,1.67721 -7.68034,2.11491 -19.74144,1.1251 -12.88698,-1.05762 -18.98511,-0.64704 -17.56313,1.1825 1.19809,1.54145 -1.59076,4.16819 -6.19741,5.83719 -10.0932,3.65674 -10.59255,6.25334 -15.58674,81.04788 -12.24594,183.3993 -12.53891,185.97112 -21.18654,185.97112 -2.00856,0 -5.10987,-2.81039 -6.89175,-6.2453 z M 369.58867,604.81693 c -0.0684,-9.54143 -1.52228,-29.79627 -3.23064,-45.01073 -3.04444,-27.11373 -1.53955,-38.3302 3.71197,-27.66684 1.70575,3.46356 2.73024,-0.24732 2.88855,-10.46249 0.36139,-23.316 13.85726,-42.87614 14.45365,-20.94826 0.19723,7.24849 0.77665,7.9393 2.94942,3.51588 5.21711,-10.62122 7.60966,13.43017 3.89838,39.18889 -1.94985,13.53312 -3.55803,34.91042 -3.57381,47.50511 -0.0279,21.04138 -0.5951,22.89942 -7.01009,22.89942 -3.87858,0 -6.98146,1.85047 -6.98146,4.16354 0,2.28994 -1.57083,4.16353 -3.49073,4.16353 -1.94151,0 -3.54599,-7.69915 -3.61524,-17.34805 z m 8.03891,-33.30826 c -2.59777,-16.18454 -4.42367,-16.66191 -4.42367,-1.15655 0,7.12428 1.42136,12.95322 3.15855,12.95322 1.73724,0 2.30651,-5.3085 1.26512,-11.79667 z m 59.28978,-120.04853 c 0.0388,-6.10651 0.75362,-8.27779 1.58856,-4.82509 0.83495,3.45271 0.80326,8.44895 -0.0705,11.10276 -0.87369,2.6538 -1.55686,-0.17126 -1.51812,-6.27767 z m -62.99865,-21.52063 c -3.88225,-3.71964 1.36121,-21.54706 9.78305,-33.26155 11.56553,-16.08725 -4.54357,-32.35761 -32.82464,-33.15323 -18.40442,-0.51775 -50.94966,-1.95373 -63.19612,-2.78835 -16.91309,-1.15269 -30.01593,0.60049 -27.61121,3.69439 1.70414,2.19254 -0.12947,2.68553 -5.90276,1.58705 -4.60614,-0.87642 -15.76549,-2.44102 -24.79855,-3.47694 -11.86317,-1.36045 -17.94374,-3.72802 -21.89754,-8.52625 -5.54791,-6.73273 -17.11245,-8.89602 -20.97696,-3.92396 -1.90437,2.45016 -14.05219,-1.10284 -19.2432,-5.62826 -6.87934,-5.99727 -24.72243,-13.48283 -29.01588,-12.17276 -6.74898,2.05934 -32.29549,-8.29342 -35.1717,-14.25335 -1.59662,-3.30845 -0.75367,-4.14477 3.01769,-2.99402 2.87824,0.87825 12.71374,2.26041 21.85665,3.07146 9.14292,0.81109 41.75675,3.90995 72.47519,6.88637 73.37893,7.10996 164.77461,12.32106 186.7059,10.64541 l 17.50186,-1.33722 0,19.98379 c 0,33.83978 -4.24417,70.75638 -7.92654,68.94671 -1.92636,-0.94667 -2.53249,-7.54076 -1.39507,-15.17713 1.10618,-7.42671 0.58616,-13.50314 -1.15557,-13.50314 -1.7417,0 -3.63124,8.41825 -4.19893,18.7072 -0.79865,14.4748 -2.28944,18.89763 -6.58928,19.54887 -3.05642,0.46292 -7.30279,-0.83088 -9.43639,-2.87509 z m 62.22528,-3.46056 c 0,-3.05326 1.52269,-7.42497 3.38381,-9.71491 2.80205,-3.44768 3.38381,-3.20909 3.38381,1.38784 0,3.05326 -1.52269,7.42497 -3.38381,9.71491 -2.80204,3.44768 -3.38381,3.20909 -3.38381,-1.38784 z m 0.70293,-65.22868 c 0,-5.3432 0.71839,-7.52905 1.59642,-4.85745 0.87798,2.6716 0.87798,7.04331 0,9.71491 -0.87803,2.6716 -1.59642,0.48574 -1.59642,-4.85746 z m 15.41297,4.22882 c -1.24905,-2.58825 -0.80332,-6.78442 0.99053,-9.32482 3.03303,-4.29529 3.42074,-4.29041 5.53375,0.07 1.24972,2.57889 0.80399,6.77504 -0.99053,9.32481 -3.03892,4.31798 -3.4185,4.31317 -5.53375,-0.0699 z m 22.85574,-11.16804 c 0.0712,-4.57989 0.85348,-6.11745 1.73852,-3.41679 0.88504,2.70066 0.82685,6.44784 -0.1295,8.32707 -0.95622,1.87922 -1.68034,-0.33039 -1.6092,-4.91028 z M 432.7917,324.4724 c -0.1892,-18.73232 0.84134,-24.28727 4.50591,-24.28727 5.75003,0 10.37878,32.24989 5.56639,38.78255 -1.71814,2.33233 -3.28206,2.99156 -3.47541,1.46493 -0.19339,-1.52663 -1.70149,-0.27757 -3.35152,2.77569 -1.99502,3.69166 -3.08221,-2.58484 -3.24537,-18.7359 z m 37.2815,7.19717 c -3.90903,-6.3253 -4.51107,-20.00792 -3.03418,-68.95624 l 1.84251,-61.06514 4.02297,68.00436 c 2.2126,37.4024 3.57799,68.43271 3.03417,68.95624 -0.54382,0.52352 -3.18326,-2.59913 -5.86547,-6.93922 z m -416.580794,-20.079 c -14.025153,-6.80055 -25.899744,-18.94799 -25.760278,-26.35214 0.100296,-5.32466 0.814038,-5.12029 7.67029,2.19627 4.473306,4.77362 19.036039,12.3588 35.669404,18.57882 l 28.109705,10.51158 -17.453655,0.14684 c -11.224383,0.0944 -21.301722,-1.71915 -28.235466,-5.08123 z m 770.796994,1.98389 c -4.26319,-3.38992 0.212,-10.61365 6.57525,-10.61365 1.65597,0 10.66963,-3.74718 20.03037,-8.32706 9.36071,-4.57989 18.12437,-8.32707 19.47479,-8.32707 5.43175,0 -13.27347,21.62822 -22.42142,25.92513 -11.58364,5.44099 -18.04383,5.8076 -23.65899,1.34265 z M 436.62606,269.65255 c -0.75047,-21.68583 3.24467,-45.66289 6.85426,-41.13622 4.06552,5.09843 3.84811,41.86642 -0.23562,39.8595 -1.79553,-0.8824 -3.90037,2.4788 -4.67744,7.46933 -0.91901,5.90171 -1.59757,3.73692 -1.9412,-6.19261 z m 348.72379,-30.18907 c -26.68448,-8.94685 -32.79888,-15.83569 -12.04945,-13.57555 7.45533,0.81207 19.05304,3.44517 25.7727,5.85133 11.8533,4.24441 11.90534,4.32924 1.74536,2.84535 l -10.47219,-1.52951 11.34487,5.76733 c 10.84068,5.51101 14.349,8.88649 8.72683,8.3964 -1.43993,-0.12552 -12.72057,-3.61543 -25.06812,-7.75535 z M 450.19701,48.455216 c -0.10821,-4.871446 1.47833,-9.680496 3.52595,-10.686777 5.62675,-2.765174 5.83301,-0.819395 1.04206,9.829043 l -4.37099,9.714909 -0.19688,-8.857175 z"
       id="path3433"
       inkscape:connector-curvature="0" />
    <path
       style="fill:#362724"
       d="m 448.85762,635.3495 c -4.8266,-81.12765 -9.3413,-142.93782 -11.35347,-155.43855 -1.22887,-7.63453 -0.73078,-13.18452 1.18322,-13.18452 3.4206,0 5.56667,19.77314 11.15537,102.7818 3.4627,51.43117 6.99828,67.47213 10.99426,49.88106 1.39089,-6.12283 2.37677,0.20762 2.6664,17.12103 0.48797,28.49652 -1.13498,35.61705 -8.11794,35.61705 -3.13077,0 -4.94933,-10.24579 -6.52784,-36.77787 z m 78.03972,0 c -4.21589,-8.12699 -10.77986,-130.43801 -7.16273,-133.46812 2.57225,-2.15479 6.85426,18.55134 12.82033,61.99414 2.46048,17.91618 2.49623,17.96456 5.12894,6.93922 2.49308,-10.44064 4.16018,-27.93072 14.15425,-148.49932 2.34273,-28.2627 5.61211,-49.4273 7.81854,-50.61382 2.08564,-1.1216 7.71915,-2.00838 12.51891,-1.97063 l 8.72683,0.0686 -9.38553,4.05189 c -11.22986,4.8481 -11.49114,6.13977 -16.54125,81.77217 -12.24594,183.39931 -12.53891,185.97113 -21.18654,185.97113 -2.00856,0 -5.10987,-2.81039 -6.89175,-6.2453 z M 369.58867,604.81693 c -0.0684,-9.54143 -1.52228,-29.79627 -3.23064,-45.01073 -1.70833,-15.21449 -2.16673,-28.87124 -1.01867,-30.34835 4.04838,-5.20864 7.37665,8.3103 7.61919,30.94806 0.13509,12.59469 1.64137,22.89943 3.34761,22.89943 4.33468,0 7.34369,-14.72799 9.31187,-45.57852 0.92623,-14.51807 2.98796,-29.1993 4.58166,-32.625 5.41437,-11.63827 7.89107,11.74341 4.06031,38.33156 -1.94985,13.53312 -3.55803,34.91042 -3.57381,47.50511 -0.0279,21.04138 -0.5951,22.89942 -7.01009,22.89942 -3.87858,0 -6.98146,1.85047 -6.98146,4.16354 0,2.28994 -1.57083,4.16353 -3.49073,4.16353 -1.94151,0 -3.54599,-7.69915 -3.61524,-17.34805 z m 95.18748,-18.7359 c -0.12706,-14.07141 0.8117,-20.79279 2.32626,-16.65413 1.39668,3.81657 1.49264,14.43358 0.21329,23.59335 -2.27174,16.26379 -2.33125,16.10113 -2.53944,-6.93922 z m 3.48735,-61.06514 c 0,-5.3432 0.71839,-7.52906 1.59641,-4.85746 0.87799,2.6716 0.87799,7.04331 0,9.71491 -0.87802,2.6716 -1.59641,0.48575 -1.59641,-4.85745 z m 3.72691,-30.53258 c 0,-8.39645 0.65441,-11.83137 1.45421,-7.63314 0.79983,4.19823 0.79983,11.06806 0,15.26629 -0.7998,4.19823 -1.45421,0.76331 -1.45421,-7.63315 z m 43.10655,-20.12374 c -2.69579,-28.22697 -3.79345,-110.04255 -1.5008,-111.86557 0.92176,-0.73292 2.75642,12.11477 4.07703,28.55048 1.32061,16.43571 3.58652,41.12463 5.03535,54.86429 2.83929,26.9262 1.52401,51.35023 -2.76536,51.35023 -1.46258,0 -3.64335,-10.30474 -4.84622,-22.89943 z m -78.1796,-22.89943 c 0.0388,-6.10651 0.75362,-8.27779 1.58856,-4.82509 0.83495,3.45271 0.80326,8.44895 -0.0705,11.10276 -0.87369,2.6538 -1.55686,-0.17126 -1.51812,-6.27767 z m -0.32917,-26.36904 c 0,-3.81657 0.79232,-5.37789 1.76069,-3.46961 0.96836,1.90829 0.96836,5.03094 0,6.93922 -0.96837,1.90829 -1.76069,0.34697 -1.76069,-3.46961 z m -39.78596,-2.77568 c -1.22158,-2.28995 -1.92573,-22.79326 -1.56482,-45.56293 0.47976,-30.26633 1.82963,-41.71168 5.01963,-42.56057 3.31271,-0.88153 4.25901,5.41126 3.92983,26.13313 -0.54738,34.45795 -4.47662,67.44176 -7.38464,61.99037 z m -164.6971,-59.28593 c -11.36771,-1.74189 -21.24502,-4.55835 -21.94957,-6.25885 -1.35543,-3.27137 45.1716,4.19698 49.98346,8.02316 3.18748,2.53456 -2.18626,2.19637 -28.03389,-1.76431 z m 401.15824,0.99647 c 9.53452,-3.25785 12.21756,-3.25785 12.21756,0 0,1.52663 -4.31978,2.68789 -9.59951,2.58058 -8.50635,-0.17292 -8.8045,-0.46673 -2.61805,-2.58058 z m 20.94439,-2.77569 c 1.18657,-1.52663 5.99177,-2.77569 10.67821,-2.77569 4.68645,0 8.52081,1.24906 8.52081,2.77569 0,1.52663 -4.8052,2.77569 -10.67822,2.77569 -6.2299,0 -9.77949,-1.1563 -8.5208,-2.77569 z M 175.10493,348.96602 c -4.31978,-1.60083 -7.85415,-3.90739 -7.85415,-5.12573 0,-1.21833 2.74895,-1.09093 6.10878,0.28312 3.35983,1.37405 8.38766,3.06289 11.17294,3.75301 2.78529,0.69009 3.57071,1.87245 1.74537,2.62747 -1.82534,0.75498 -6.85316,0.063 -11.17294,-1.53787 z M 433.01274,324.4724 c -0.28014,-14.5883 0.92759,-24.28727 3.02433,-24.28727 4.02045,0 4.08824,14.64494 0.16057,34.6961 -2.49538,12.73936 -2.7568,11.88503 -3.18494,-10.40883 z m -315.0797,3.48996 c -17.46484,-7.3878 -20.582105,-14.25786 -5.50634,-12.13523 19.05113,2.68234 35.80991,15.13794 22.7192,16.88554 -2.50128,0.33391 -10.24708,-1.80373 -17.21286,-4.75031 z m 639.93906,2.18249 c 3.14983,-8.24909 54.21978,-22.05651 55.20518,-14.92543 0.19339,1.39903 -6.41289,4.34351 -14.68048,6.54327 -8.26762,2.19979 -16.60282,4.94233 -18.52273,6.09458 -1.9199,1.15221 -7.96424,2.9462 -13.43187,3.98661 -7.30481,1.38998 -9.57756,0.9394 -8.5701,-1.69903 z M 53.492406,311.59057 c -14.025153,-6.80055 -25.899744,-18.94799 -25.760278,-26.35214 0.100296,-5.32466 0.814038,-5.12029 7.67029,2.19627 4.473306,4.77362 19.036039,12.3588 35.669404,18.57882 l 28.109705,10.51158 -17.453655,0.14684 c -11.224383,0.0944 -21.301722,-1.71915 -28.235466,-5.08123 z m 770.796994,1.98389 c -4.26319,-3.38992 0.212,-10.61365 6.57525,-10.61365 1.65597,0 10.66963,-3.74718 20.03037,-8.32706 9.36071,-4.57989 18.12437,-8.32707 19.47479,-8.32707 5.43175,0 -13.27347,21.62822 -22.42142,25.92513 -11.58364,5.44099 -18.04383,5.8076 -23.65899,1.34265 z M 436.69724,266.87687 c -0.0785,-9.92309 1.11511,-23.66275 2.65239,-30.53258 2.66455,-11.90745 2.80606,-11.58348 3.0308,6.93922 0.1295,10.6864 -1.06391,24.42606 -2.65237,30.53258 -2.68049,10.3046 -2.89838,9.80575 -3.03082,-6.93922 z m 348.65261,-27.41339 c -26.68448,-8.94685 -32.79888,-15.83569 -12.04945,-13.57555 7.45533,0.81207 19.05304,3.44517 25.7727,5.85133 11.8533,4.24441 11.90534,4.32924 1.74536,2.84535 l -10.47219,-1.52951 11.34487,5.76733 c 10.84068,5.51101 14.349,8.88649 8.72683,8.3964 -1.43993,-0.12552 -12.72057,-3.61543 -25.06812,-7.75535 z M 450.19701,48.455216 c -0.10821,-4.871446 1.47833,-9.680496 3.52595,-10.686777 5.62675,-2.765174 5.83301,-0.819395 1.04206,9.829043 l -4.37099,9.714909 -0.19688,-8.857175 z"
       id="path3431"
       inkscape:connector-curvature="0" />
  </g>
</svg>
