<?xml version="1.0" encoding="UTF-8" standalone="no"?>
<svg
   xmlns:dc="http://purl.org/dc/elements/1.1/"
   xmlns:cc="http://creativecommons.org/ns#"
   xmlns:rdf="http://www.w3.org/1999/02/22-rdf-syntax-ns#"
   xmlns:svg="http://www.w3.org/2000/svg"
   xmlns="http://www.w3.org/2000/svg"
   xmlns:sodipodi="http://sodipodi.sourceforge.net/DTD/sodipodi-0.dtd"
   xmlns:inkscape="http://www.inkscape.org/namespaces/inkscape"
   version="1.0"
   width="900.000000pt"
   height="720.000000pt"
   viewBox="0 0 900.000000 720.000000"
   preserveAspectRatio="xMidYMid meet"
   id="svg2"
   inkscape:version="0.91 r"
   sodipodi:docname="poke.svg">
  <defs
     id="defs36" />
  <sodipodi:namedview
     pagecolor="#ffffff"
     bordercolor="#666666"
     borderopacity="1"
     objecttolerance="10"
     gridtolerance="10"
     guidetolerance="10"
     inkscape:pageopacity="0"
     inkscape:pageshadow="2"
     inkscape:window-width="1366"
     inkscape:window-height="716"
     id="namedview34"
     showgrid="false"
     inkscape:zoom="0.52444444"
     inkscape:cx="490.33572"
     inkscape:cy="450"
     inkscape:window-x="0"
     inkscape:window-y="25"
     inkscape:window-maximized="1"
     inkscape:current-layer="svg2" />
  <metadata
     id="metadata4">
Created by potrace 1.10, written by Peter Selinger 2001-2011
<rdf:RDF>
  <cc:Work
     rdf:about="">
    <dc:format>image/svg+xml</dc:format>
    <dc:type
       rdf:resource="http://purl.org/dc/dcmitype/StillImage" />
    <dc:title />
  </cc:Work>
</rdf:RDF>
</metadata>
  <g
     id="g3444"
     transform="translate(-3.0508498,-24.40678)">
    <path
       style="fill:none"
       d="m 123.22034,356.94914 39.66102,-285.59321 302.37288,-45.762712 342.03391,0 0,331.355922 0,331.35593 -342.03391,0 -342.0339,0 z"
       id="path3460"
       inkscape:connector-curvature="0"
       sodipodi:nodetypes="ccccccccc" />
    <path
       style="fill:none"
       d="m 436.18136,687.56167 c -33.05125,-2.01869 -64.20852,-8.93806 -97.13763,-21.5722 -44.64727,-17.13012 -82.50477,-41.28009 -116.64493,-74.40986 -49.39851,-47.93656 -82.16583,-108.54752 -94.71983,-175.20694 -3.03486,-16.11451 -4.47073,-35.19969 -4.47073,-59.42353 0,-24.22384 1.43587,-43.30901 4.47073,-59.42353 9.47259,-50.29769 31.06379,-98.41732 62.45507,-139.19165 19.05886,-24.75568 43.66605,-48.73592 68.87376,-67.118954 42.63094,-31.08915 92.5613,-52.167077 145.36441,-61.365073 17.14138,-2.985931 31.71185,-3.925359 60.88203,-3.925359 29.17019,0 43.74066,0.939428 60.88204,3.925359 45.78285,7.975107 88.81865,24.589123 127.57865,49.251873 32.72042,20.819801 63.00923,48.512634 86.65953,79.232154 31.39127,40.77433 52.98246,88.89396 62.45506,139.19165 3.03486,16.11452 4.47074,35.19969 4.47074,59.42353 0,24.22384 -1.43588,43.30902 -4.47074,59.42353 -9.4726,50.2977 -31.06379,98.41732 -62.45506,139.19165 -19.20606,24.94687 -43.94376,48.99434 -69.55784,67.61702 -36.07789,26.23038 -79.52333,46.07083 -123.81627,56.5438 -12.8664,3.04223 -27.35165,5.67635 -36.14121,6.57222 -19.03387,1.94001 -53.93942,2.53099 -74.67778,1.26431 z M 612.909,637.2956 c 20.95977,-10.43018 27.34758,-20.84494 29.48092,-48.06595 0.39992,-5.10288 1.50432,-15.24238 2.45421,-22.53221 3.2154,-24.67624 3.61747,-56.6376 1.66322,-132.21101 -1.72384,-66.66303 -4.83946,-102.17342 -14.04207,-160.04491 -4.5581,-28.66403 -5.68809,-34.449 -8.21997,-42.0822 -6.74543,-20.3363 -19.30252,-34.61608 -39.28752,-44.67736 -9.04572,-4.55399 -17.73583,-7.36551 -25.64422,-8.29672 -17.39176,-2.04784 -150.99214,-3.1758 -174.77933,-1.47562 -34.62139,2.47455 -46.06975,6.12696 -63.42564,20.23488 -12.94511,10.52259 -19.21486,20.16312 -23.44331,36.04703 -0.75057,2.81944 -3.06729,14.96753 -5.14827,26.99575 -2.08098,12.02822 -4.69128,26.12948 -5.80066,31.33613 -3.80468,17.85651 -6.10029,40.44012 -8.53605,83.97573 -1.97132,35.23414 -2.4768,51.17511 -2.87894,90.79153 -0.53519,52.72437 0.33437,66.91412 4.72698,77.13623 6.30883,14.68138 23.55831,31.99896 38.33058,38.48191 15.4138,6.76448 45.89604,11.90176 90.45972,15.24548 34.21448,2.5672 44.5324,3.41217 53.35729,4.36965 38.39931,4.16619 61.54696,10.18194 96.79559,25.15579 14.58019,6.19375 22.83684,9.15878 32.33548,11.61194 10.25427,2.64831 12.72837,2.41969 21.60199,-1.99607 z M 362.8891,555.14477 c -3.64019,-0.8651 -7.01132,-3.33115 -8.97295,-6.5639 -1.85127,-3.0509 -1.87808,-3.26091 -2.10694,-16.51012 l -0.23183,-13.41992 -13.2004,0 c -13.1109,0 -13.22513,-0.0125 -16.84638,-1.84522 -2.95154,-1.49376 -4.00875,-2.51797 -5.55066,-5.37737 -2.49628,-4.62924 -2.49628,-8.09675 0,-12.726 1.54191,-2.8594 2.59912,-3.8836 5.55066,-5.37737 3.62125,-1.83271 3.73548,-1.84522 16.84638,-1.84522 l 13.2004,0 0.23183,-13.41992 c 0.22962,-13.29276 0.24981,-13.44957 2.13118,-16.55018 5.47481,-9.0228 18.77324,-9.0228 24.24804,0 1.88137,3.10061 1.90157,3.25742 2.13119,16.55018 l 0.23182,13.41992 13.20041,0 c 13.11089,0 13.22513,0.0125 16.84638,1.84522 2.95154,1.49377 4.00875,2.51797 5.55065,5.37737 1.21725,2.25733 1.90469,4.55386 1.90469,6.363 0,1.80915 -0.68744,4.10567 -1.90469,6.363 -1.5419,2.8594 -2.59911,3.88361 -5.55065,5.37737 -3.62125,1.83271 -3.73549,1.84522 -16.84638,1.84522 l -13.20041,0 -0.23182,13.41992 c -0.22962,13.29276 -0.24982,13.44958 -2.13119,16.55018 -3.04846,5.02403 -9.69125,7.85661 -15.29933,6.52384 z M 516.00267,544.1244 c -7.61051,-1.98417 -12.98326,-7.4402 -14.95708,-15.18894 -1.01126,-3.96996 -1.01126,-4.67048 0,-8.64044 2.0632,-8.09964 7.48213,-13.34939 15.84278,-15.34818 4.09789,-0.97969 4.82098,-0.97969 8.91887,0 8.36065,1.99879 13.77958,7.24854 15.84278,15.34818 1.01126,3.96996 1.01126,4.67048 0,8.64044 -2.0092,7.88768 -7.3661,13.23231 -15.2589,15.22394 -4.74217,1.19661 -5.67648,1.19347 -10.38845,-0.035 z m 64.98644,-46.38983 c -7.61051,-1.98417 -12.98326,-7.4402 -14.95708,-15.18894 -1.01126,-3.96996 -1.01126,-4.67047 0,-8.64044 2.0632,-8.09963 7.48213,-13.34939 15.84278,-15.34818 4.09789,-0.97969 4.82098,-0.97969 8.91888,0 8.36064,1.99879 13.77958,7.24855 15.84277,15.34818 1.01126,3.96997 1.01126,4.67048 0,8.64044 -2.0092,7.88768 -7.3661,13.23231 -15.2589,15.22394 -4.74217,1.19662 -5.67648,1.19347 -10.38845,-0.035 z M 451.23085,444.02771 c -23.34709,-1.74921 -44.64172,-6.66086 -62.27565,-14.36397 -27.33234,-11.93973 -48.71967,-30.27452 -60.08329,-51.50782 -7.39946,-13.82614 -10.24871,-24.69634 -10.24871,-39.1 0,-10.18749 1.22955,-17.49699 4.43395,-26.35928 14.88934,-41.17887 59.83812,-70.82219 117.91269,-77.76237 8.8093,-1.05275 32.23476,-1.05275 41.04407,0 51.58557,6.16472 93.65994,30.56968 112.09792,65.02165 7.39947,13.82614 10.24871,24.69635 10.24871,39.1 0,10.18749 -1.22955,17.49699 -4.43395,26.35929 -14.6383,40.48459 -58.79983,70.18163 -114.97335,77.31545 -7.97489,1.01278 -27.49544,1.76359 -33.72239,1.29705 z m 96.66884,-43.51092 c 1.56824,-1.00546 3.70051,-3.07123 4.73838,-4.59059 l 1.88702,-2.76247 0,-54.10781 0,-54.10781 -1.88702,-2.76247 c -1.03787,-1.51936 -3.1702,-3.58512 -4.73852,-4.59058 l -2.85149,-1.82812 -84.58229,0 -84.58229,0 -2.85149,1.82812 c -1.56832,1.00546 -3.70065,3.07108 -4.73852,4.59027 l -1.88702,2.76215 -0.20467,52.73431 c -0.13393,34.51103 0.0367,53.53584 0.49372,55.05379 0.97332,3.23266 4.27367,6.87827 7.73334,8.54236 l 2.92269,1.4058 83.84841,-0.16942 83.84841,-0.16942 2.85134,-1.82811 z M 394.59492,161.45687 c 4.88462,-1.6632 9.60705,-4.41881 17.50544,-10.21466 14.61981,-10.72806 29.03889,-15.4604 49.04948,-16.09803 9.63108,-0.3069 11.30694,-0.18351 18.2817,1.34605 13.53006,2.96712 25.40083,8.24915 39.52203,17.58576 8.5636,5.66205 13.77946,7.99743 17.91225,8.02014 5.81161,0.0319 8.67445,-2.48248 8.59539,-7.54925 -0.13751,-8.81248 -13.35385,-21.44605 -31.29612,-29.91615 -15.44377,-7.29062 -25.42747,-9.49005 -45.52232,-10.02865 -29.3818,-0.78753 -46.38289,3.49333 -67.6909,17.04448 -7.20738,4.58365 -17.56443,14.1955 -19.36742,17.97393 -2.14633,4.49792 -0.88809,10.78774 2.47269,12.36079 2.36309,1.10606 6.32892,0.90871 10.53778,-0.52441 z m -20.87146,-27.68585 c 3.12415,-1.51085 8.45075,-4.88539 11.83689,-7.49896 24.49013,-18.90263 49.24229,-26.01454 86.77373,-24.93228 25.10646,0.72397 38.95307,5.4742 64.68082,22.18943 6.99695,4.54589 14.7044,9.177 17.12768,10.29136 8.03987,3.69717 15.08089,2.9508 17.43135,-1.84779 2.96308,-6.04928 -0.48432,-12.19094 -11.52698,-20.53573 -14.99611,-11.33235 -38.51657,-23.121778 -53.4066,-26.769595 -19.09892,-4.678925 -59.29201,-5.898349 -79.86343,-2.422987 -18.83728,3.182393 -50.31866,19.431932 -64.76954,33.431672 -5.38425,5.21615 -6.42206,7.2715 -6.49053,12.85425 -0.0531,4.33404 0.0421,4.60906 2.26284,6.53443 2.13235,1.84871 2.63703,1.98763 6.29092,1.73159 2.89382,-0.20279 5.51506,-1.02433 9.65285,-3.02539 z m -32.28861,-26.05153 c 2.37236,-1.48547 7.26841,-4.98382 10.88011,-7.774131 22.05901,-17.042212 53.58837,-31.77933 80.17675,-37.475358 21.46749,-4.59898 46.87833,-3.944087 70.09771,1.806571 24.89895,6.166628 47.13211,17.235721 70.61263,35.155497 15.07518,11.505011 16.44748,11.985241 22.57183,7.898921 8.4092,-5.61083 7.51285,-9.827512 -4.56716,-21.485139 -9.84968,-9.505275 -21.75654,-17.360791 -39.07586,-25.78019 -21.00202,-10.209656 -41.35415,-17.001465 -62.93424,-21.002094 -9.05967,-1.67953 -11.28203,-1.838423 -25.65254,-1.834099 l -15.73356,0.0047 -16.41763,3.146172 c -24.3903,4.674004 -31.93435,6.992235 -50.13026,15.404658 -21.2134,9.807488 -38.65996,21.529476 -48.01852,32.262679 -7.0605,8.097598 -9.27124,14.080703 -6.64017,17.970863 1.27391,1.88354 6.2735,4.40051 8.74238,4.40124 0.97632,2.9e-4 3.71616,-1.21485 6.08853,-2.70032 z"
       id="path3458"
       inkscape:connector-curvature="0" />
    <path
       style="fill:#aeaeae"
       d="m 435.15526,687.2948 c -31.56499,-2.17142 -63.7891,-9.51882 -96.45356,-21.99232 -79.08178,-30.19878 -144.41101,-89.01603 -181.6584,-163.5508 -14.90452,-29.82504 -25.31312,-62.17343 -30.47599,-94.71485 -4.30291,-27.12107 -4.30291,-73.0543 0,-100.17538 13.38464,-84.36302 59.7169,-160.44878 129.70422,-212.997254 41.21426,-30.944847 93.31059,-53.64699 144.33831,-62.898653 27.78442,-5.037499 60.82639,-6.593949 93.37525,-4.398464 42.34724,2.856405 82.6065,13.593856 123.015,32.809035 99.74204,47.429656 169.94693,140.371666 186.94109,247.485336 4.30289,27.12108 4.30289,73.05431 0,100.17538 -17.13729,108.01585 -87.93841,200.99935 -189.21812,248.5012 -30.78616,14.43921 -64.17698,24.52287 -97.76705,29.52456 -20.39255,3.03653 -55.98849,4.00791 -81.80075,2.23221 z m 175.78855,-48.44923 c 21.68207,-9.78826 30.07924,-22.35421 31.82722,-47.62779 0.25209,-3.64491 1.39746,-13.93351 2.54525,-22.86356 2.06291,-16.04965 2.09052,-16.68244 2.40026,-55.00508 0.54829,-67.83683 -1.597,-129.9641 -5.99555,-173.63051 -2.66013,-26.40831 -10.91742,-82.79744 -14.45745,-98.73008 -5.65402,-25.44703 -20.40917,-43.64837 -44.60435,-55.02206 -15.01686,-7.05914 -19.11627,-7.6351 -61.65342,-8.66233 -36.5514,-0.88268 -134.04501,-0.44871 -145.36441,0.64705 -30.01717,2.90579 -43.5261,8.48358 -60.75551,25.08575 -9.18598,8.85156 -14.44416,18.09044 -17.81991,31.31049 -0.79112,3.09818 -3.14411,15.47432 -5.22885,27.50254 -2.08474,12.02822 -4.69743,26.19369 -5.80597,31.47882 -2.48159,11.83136 -3.69453,20.99083 -5.44106,41.08813 -5.9356,68.30121 -8.12287,175.33445 -4.08842,200.0661 3.09789,18.99041 24.92601,43.16417 45.49837,50.38762 18.21606,6.3961 46.28357,10.80178 88.87084,13.94981 85.05456,6.2872 100.84113,9.4991 151.52102,30.82816 18.13336,7.63158 35.03938,12.55212 40.70204,11.84645 1.50495,-0.18754 5.0374,-1.37983 7.8499,-2.64951 z M 360.03219,553.37914 c -2.64642,-1.27759 -4.04656,-2.51517 -5.43583,-4.80466 -1.83615,-3.02593 -1.87769,-3.33881 -2.2133,-16.66941 l -0.34204,-13.58559 -14.02339,-0.33136 c -15.72898,-0.37165 -16.70543,-0.63131 -20.79154,-5.52888 -1.94367,-2.32967 -2.12473,-2.95975 -2.12473,-7.394 0,-4.43425 0.18106,-5.06432 2.12473,-7.39399 4.08611,-4.89758 5.06256,-5.15723 20.79154,-5.52889 l 14.02339,-0.33136 0.34204,-13.58559 c 0.33561,-13.3306 0.37715,-13.64347 2.2133,-16.66941 2.15874,-3.55756 7.37466,-6.5255 11.46805,-6.5255 4.0934,0 9.30932,2.96794 11.46806,6.5255 1.83614,3.02594 1.87768,3.33881 2.2133,16.66941 l 0.34203,13.58559 14.02339,0.33136 c 15.72899,0.37166 16.70544,0.63131 20.79155,5.52889 1.94367,2.32967 2.12472,2.95974 2.12472,7.39399 0,4.43425 -0.18105,5.06433 -2.12472,7.394 -4.08611,4.89757 -5.06256,5.15723 -20.79155,5.52888 l -14.02339,0.33136 -0.34203,13.58559 c -0.33562,13.3306 -0.37716,13.64348 -2.2133,16.66941 -2.15874,3.55756 -7.37466,6.52551 -11.46806,6.52551 -1.3572,0 -4.0717,-0.77438 -6.03222,-1.72085 z m 155.4301,-9.8224 c -6.95915,-2.11013 -12.58917,-8.18095 -14.11269,-15.21765 -2.22573,-10.27992 5.15521,-20.86266 16.10212,-23.08712 13.78727,-2.80163 26.78121,9.75335 23.89429,23.08712 -2.48364,11.47121 -14.64978,18.62396 -25.88372,15.21765 z m 64.98644,-46.38983 c -6.95915,-2.11013 -12.58916,-8.18095 -14.11269,-15.21765 -2.22573,-10.27992 5.15522,-20.86266 16.10212,-23.08712 13.78728,-2.80163 26.78121,9.75335 23.8943,23.08712 -2.48365,11.47121 -14.64979,18.62396 -25.88373,15.21765 z M 448.83662,443.37234 c -1.31683,-0.1511 -5.47254,-0.59446 -9.23492,-0.98524 -22.12006,-2.29751 -47.03591,-10.17464 -65.50139,-20.70822 -20.25479,-11.55428 -37.71555,-29.0928 -46.36434,-46.5708 -6.1056,-12.33856 -8.50487,-22.50906 -8.50487,-36.05216 0,-23.0815 8.86707,-43.04427 27.33738,-61.54565 22.72782,-22.76605 55.06205,-37.29188 93.37526,-41.9479 9.24976,-1.12407 33.8465,-1.12407 43.09627,0 23.88264,2.90234 47.42807,10.36561 65.84343,20.8706 20.25478,11.55428 37.71554,29.09279 46.36433,46.5708 6.1056,12.33856 8.50488,22.50906 8.50488,36.05215 0,23.08151 -8.86708,43.04428 -27.33739,61.54565 -22.24443,22.28187 -53.34476,36.54811 -90.63898,41.57765 -6.95995,0.93863 -32.08523,1.75016 -36.93966,1.19312 z m 96.03216,-40.84341 c 3.70228,-1.06514 8.74681,-5.95218 9.84627,-9.53888 1.20253,-3.92299 1.20253,-103.94527 0,-107.86825 -1.09946,-3.58671 -6.14399,-8.47374 -9.84627,-9.53888 -4.077,-1.17293 -164.72902,-1.17293 -168.80602,0 -3.70228,1.06514 -8.7468,5.95217 -9.84627,9.53888 -1.20253,3.92298 -1.20253,103.94526 0,107.86825 1.02784,3.35303 6.10494,8.45899 9.42487,9.47842 3.60821,1.10796 165.38554,1.16575 169.22742,0.0604 z M 394.30379,162.06155 c 4.97528,-1.60906 11.7059,-5.52446 19.33233,-11.2462 9.34646,-7.0122 21.44225,-11.90747 35.3896,-14.32249 7.5424,-1.30599 20.98776,-1.44678 27.17361,-0.28454 13.27321,2.49385 27.72391,8.69532 42.15365,18.09009 12.31873,8.02036 18.50831,9.99125 23.50931,7.48588 2.87795,-1.44179 4.11196,-3.53638 4.11196,-6.9796 0,-4.64519 -2.82218,-9.43883 -9.18597,-15.60293 -11.88464,-11.5117 -30.77388,-20.54643 -49.9859,-23.90826 -9.74742,-1.70566 -35.22719,-1.71326 -45.83254,-0.0136 -13.86121,2.22138 -27.59222,7.69445 -40.84807,16.28174 -13.57818,8.79608 -21.05317,17.80042 -20.13931,24.25968 0.53641,3.79133 1.65761,5.56908 4.20975,6.67492 2.88351,1.24943 5.21414,1.14924 10.11158,-0.43464 z m -20.38455,-27.72479 c 3.01647,-1.46079 8.82642,-5.20209 12.911,-8.31397 16.66741,-12.69829 30.89877,-18.86333 51.29143,-22.21949 16.53883,-2.72192 39.97622,-2.86107 52.89651,-0.31405 14.9194,2.9411 26.76817,8.26408 45.99544,20.66313 14.37716,9.27136 19.73983,12.00015 24.70174,12.56947 4.11452,0.4721 8.22161,-1.04126 10.03525,-3.69771 1.54288,-2.25988 1.52549,-7.68318 -0.0339,-10.5489 -4.67011,-8.58283 -25.96348,-22.89251 -48.31673,-32.47007 -10.04992,-4.306028 -17.51758,-6.374135 -29.63238,-8.206445 -8.65646,-1.309251 -12.35432,-1.46963 -34.32796,-1.488822 -27.41224,-0.02394 -32.39162,0.466508 -44.73798,4.406527 -14.34129,4.576652 -38.0257,17.68615 -49.58477,27.44554 -6.79425,5.73643 -9.09079,8.84823 -10.08405,13.66392 -0.66708,3.2342 -0.61223,4.2475 0.36395,6.72381 2.32041,5.88623 8.77245,6.50873 18.52242,1.78706 z m -32.5079,-25.88801 c 1.8016,-1.11999 7.29737,-5.08598 12.21282,-8.813308 18.56256,-14.075776 39.86674,-24.927294 64.08737,-32.643596 17.7634,-5.659133 29.71721,-7.277532 49.91213,-6.757487 37.87397,0.975305 70.43492,13.19813 104.92082,39.385482 10.89338,8.272039 14.88001,10.800489 17.02925,10.800489 3.79813,0 11.30734,-5.45015 12.1869,-8.84521 0.29694,-1.14617 0.0221,-2.965795 -0.74535,-4.934798 C 599.15531,91.8683 585.47745,78.986655 575.38916,72.505956 549.74051,56.029302 518.3832,43.753948 488.17052,38.362733 c -9.16591,-1.635584 -11.75767,-1.825315 -24.28441,-1.777742 -14.93065,0.0567 -19.29951,0.612186 -44.22418,5.622942 -20.8648,4.194578 -43.43763,13.755994 -64.88464,27.483894 -9.57991,6.131958 -16.34188,11.689482 -21.89673,17.996481 -9.67889,10.989469 -10.38863,18.021692 -2.22333,22.029122 3.64485,1.78884 6.34899,1.46983 10.75411,-1.26868 z"
       id="path3456"
       inkscape:connector-curvature="0" />
    <path
       style="fill:#8f8f8f"
       d="M 437.20746,687.29975 C 355.96068,681.30246 278.23087,645.91834 220.58244,588.68783 169.3906,537.86711 136.36335,472.93329 126.30858,403.33897 c -4.8933,-33.86907 -3.8131,-75.70041 2.8151,-109.0161 C 149.61678,191.31727 219.284,103.7116 316.99565,58.076179 343.0977,45.885434 372.01729,36.6266 400.60984,31.306437 c 40.77993,-7.587847 88.50888,-7.587847 129.28881,0 117.53699,21.869893 214.62341,101.687513 256.47937,210.859283 13.93362,36.34267 20.89927,74.59961 20.89927,114.78342 0,46.72348 -9.11969,89.53421 -28.16405,132.21102 -34.12072,76.46161 -98.46545,138.79764 -177.38747,171.84981 -28.68548,12.01334 -58.72209,20.25371 -88.58678,24.30327 -21.10766,2.86214 -52.82721,3.69198 -75.93153,1.98651 z m 173.93957,-48.18884 c 12.78632,-5.88263 20.96939,-12.78297 25.77802,-21.7372 3.47065,-6.46277 5.16683,-13.68565 6.22011,-26.48728 0.40486,-4.92064 1.65142,-16.40212 2.77016,-25.51441 1.83005,-14.90632 2.07506,-19.29262 2.44308,-43.73898 0.60096,-39.92045 -1.10219,-111.14573 -3.56554,-149.11017 -2.40753,-37.10386 -7.31804,-75.86872 -15.70048,-123.9435 -3.68703,-21.14585 -11.0934,-35.99977 -23.87943,-47.89165 -12.3472,-11.48374 -29.5901,-19.99479 -44.53125,-21.98048 -9.28947,-1.23459 -36.75081,-1.94657 -92.69118,-2.40317 -112.66443,-0.9196 -127.06401,1.56164 -153.09738,26.38067 -13.08127,12.47109 -17.03285,21.90425 -22.37854,53.42177 -3.17248,18.70458 -5.39735,30.64018 -7.8032,41.86128 -5.43464,25.3476 -10.39591,112.24178 -10.42436,182.57711 -0.0137,33.83001 0.61406,48.08232 2.50472,56.8669 3.28144,15.24651 20.19658,35.18251 37.96757,44.74814 14.74764,7.93824 48.51335,13.63869 104.66237,17.66946 72.11405,5.17686 95.40342,9.92073 138.04928,28.1196 14.79036,6.3117 22.06491,8.97547 31.94157,11.69626 10.66619,2.9383 14.38516,2.84686 21.73448,-0.53435 z M 360.24984,553.33373 c -3.01628,-1.54397 -4.43774,-2.91122 -5.88737,-5.66285 -1.13628,-2.15684 -1.29535,-4.00156 -1.29535,-15.02249 0,-6.91005 -0.18684,-13.03545 -0.41522,-13.612 -0.35869,-0.90555 -2.20461,-1.04827 -13.55869,-1.04827 -12.98192,0 -13.18912,-0.0224 -16.85749,-1.82246 -3.10378,-1.52301 -4.02311,-2.41364 -5.59521,-5.42052 -1.03465,-1.97894 -1.88118,-4.5349 -1.88118,-5.6799 0,-1.145 0.84653,-3.70095 1.88118,-5.6799 1.5721,-3.00688 2.49143,-3.8975 5.59521,-5.42052 3.66837,-1.80006 3.87557,-1.82246 16.85749,-1.82246 11.35408,0 13.2,-0.14271 13.55869,-1.04827 0.22838,-0.57655 0.41522,-6.70195 0.41522,-13.612 0,-11.02093 0.15907,-12.86565 1.29535,-15.02249 2.33946,-4.44068 6.36161,-6.76639 11.70194,-6.76639 5.34034,0 9.36248,2.32571 11.70195,6.76639 1.13627,2.15684 1.29534,4.00156 1.29534,15.02249 0,6.91005 0.18685,13.03545 0.41522,13.612 0.35869,0.90556 2.20462,1.04827 13.55869,1.04827 12.98193,0 13.18912,0.0224 16.8575,1.82246 3.10378,1.52302 4.0231,2.41364 5.5952,5.42052 1.03465,1.97895 1.88119,4.5349 1.88119,5.6799 0,1.145 -0.84654,3.70096 -1.88119,5.6799 -1.5721,3.00688 -2.49142,3.89751 -5.5952,5.42052 -3.66838,1.80006 -3.87557,1.82246 -16.8575,1.82246 -11.35407,0 -13.2,0.14272 -13.55869,1.04827 -0.22837,0.57655 -0.41522,6.70488 -0.41522,13.61851 0,13.08002 -0.298,14.69374 -3.33181,18.0423 -3.18161,3.51168 -11.12677,4.86488 -15.48005,2.63653 z m 153.59181,-10.65068 c -4.21837,-1.44237 -9.71156,-6.87773 -11.18512,-11.06734 -2.64909,-7.53194 -0.91661,-15.26235 4.62327,-20.62928 7.87411,-7.62829 20.2619,-7.62829 28.13601,0 5.53988,5.36693 7.27236,13.09734 4.62327,20.62928 -1.54027,4.3793 -6.94479,9.6151 -11.46521,11.10728 -4.14872,1.36947 -10.66187,1.35182 -14.73222,-0.04 z m 64.98644,-46.38983 c -4.21837,-1.44237 -9.71156,-6.87773 -11.18511,-11.06734 -2.6491,-7.53194 -0.91662,-15.26234 4.62326,-20.62928 7.87412,-7.62829 20.2619,-7.62829 28.13601,0 5.53988,5.36694 7.27236,13.09734 4.62327,20.62928 -1.54027,4.3793 -6.94479,9.6151 -11.46521,11.10728 -4.14872,1.36947 -10.66187,1.35182 -14.73222,-0.04 z M 441.31187,442.35707 c -63.34137,-7.07001 -111.57364,-42.75736 -120.67985,-89.29173 -1.41314,-7.22142 -1.41314,-20.79742 0,-28.01883 3.54449,-18.11298 12.63924,-34.29626 27.3046,-48.58607 23.05286,-22.46254 55.75014,-36.58463 94.40135,-40.77236 7.9339,-0.85961 30.37391,-0.85961 38.3078,0 38.65121,4.18773 71.3485,18.30982 94.40136,40.77236 18.80192,18.32045 28.38881,39.45892 28.38881,62.59548 0,23.13657 -9.58689,44.27504 -28.38881,62.59549 -23.05286,22.46253 -55.75015,36.58463 -94.40136,40.77235 -7.29114,0.78997 -32.03481,0.74802 -39.3339,-0.0667 z m 101.92184,-39.07912 c 4.53791,-0.94283 8.72447,-4.09322 10.912,-8.2113 l 1.74752,-3.28975 0,-52.72098 0,-52.72097 -1.74752,-3.28975 c -2.18753,-4.11808 -6.37409,-7.26848 -10.912,-8.2113 -4.8807,-1.01405 -160.65518,-1.01405 -165.53588,0 -4.53791,0.94282 -8.72447,4.09322 -10.912,8.2113 l -1.74752,3.28975 0,52.72097 0,52.72098 1.71323,3.2252 c 2.13185,4.01325 5.79303,6.94493 10.06196,8.05709 4.36397,1.13692 161.00993,1.34283 166.42021,0.21876 z M 398.9095,160.54772 c 2.82616,-1.33507 8.67451,-4.98868 12.99635,-8.11913 8.19424,-5.93537 13.00618,-8.59798 20.50419,-11.34567 12.88064,-4.7202 30.84091,-6.61288 43.07848,-4.53968 13.75709,2.33062 26.89444,7.84807 42.1671,17.70941 10.58301,6.8333 14.4404,8.52192 19.46706,8.52192 4.49366,0 7.3296,-1.4696 8.62301,-4.46851 5.78852,-13.42139 -25.5662,-37.1821 -56.58898,-42.8833 -10.01151,-1.83986 -25.09802,-2.58122 -35.62676,-1.75072 -17.07114,1.34657 -26.19904,3.60045 -39.23876,9.68891 -14.51128,6.77557 -28.63893,17.48215 -32.76931,24.8341 -1.66905,2.97087 -1.8906,3.98244 -1.63167,7.45031 0.26391,3.5347 0.57089,4.2475 2.57705,5.98405 2.14632,1.85787 2.53733,1.95336 6.79062,1.65854 3.35542,-0.23258 5.83128,-0.93551 9.65162,-2.74023 z m -24.79548,-25.97764 c 2.73421,-1.30018 7.96733,-4.63476 11.62915,-7.41019 19.56624,-14.82996 34.68005,-20.94424 59.67311,-24.14071 10.05391,-1.28584 35.89048,-1.09547 43.4383,0.32006 16.21474,3.04094 29.01802,8.71092 49.296,21.83093 7.17223,4.64048 14.93883,9.18455 17.25912,10.09794 9.93809,3.91214 17.91696,0.66485 17.90215,-7.28591 -0.003,-1.45797 -0.60287,-3.9271 -1.33365,-5.48696 -5.40799,-11.54318 -44.02017,-33.969946 -67.39006,-39.141563 -19.98693,-4.422988 -59.73713,-5.291042 -78.97745,-1.724687 -19.80604,3.671217 -50.94932,20.16597 -64.85877,34.35186 -5.12482,5.22667 -6.30585,7.63305 -6.31284,12.86265 -0.0123,9.20258 7.66554,11.4373 19.67494,5.72658 z m -33.04287,-25.52762 c 1.82675,-1.12232 7.19709,-4.95218 11.93409,-8.51079 10.71093,-8.046432 16.77974,-11.979439 26.39849,-17.108043 18.04747,-9.622685 40.80586,-18.012417 56.86915,-20.964442 35.02566,-6.436826 75.20756,0.780535 109.21035,19.616056 10.13317,5.613173 16.32529,9.748126 28.87983,19.285269 5.26732,4.00135 10.90854,7.84979 12.53605,8.55207 l 2.95909,1.27689 3.64937,-1.72973 c 5.14407,-2.43818 8.56024,-6.257 8.56024,-9.569187 0,-6.624495 -13.88347,-20.16165 -31.80916,-31.015706 -21.314,-12.90569 -51.88735,-24.915881 -74.58862,-29.300809 -16.5956,-3.205567 -20.28244,-3.540336 -35.32328,-3.207386 -13.06975,0.289316 -14.86932,0.491366 -29.97996,3.366029 -8.84158,1.68203 -18.81501,3.83127 -22.16317,4.776087 -18.26876,5.155254 -43.29129,17.339337 -59.97829,29.204887 -7.32103,5.205732 -18.78667,16.679575 -21.44803,21.463379 -2.78449,5.005146 -2.8302,9.112996 -0.13175,11.842896 4.47952,4.53176 9.25229,5.20092 14.4256,2.02253 z"
       id="path3454"
       inkscape:connector-curvature="0" />
    <path
       style="fill:#707070"
       d="m 441.99594,687.55878 c -105.61233,-6.866 -202.84786,-61.62118 -261.61597,-147.32092 -76.12068,-111.00446 -76.12068,-255.57298 0,-366.57744 55.13986,-80.408756 142.95761,-133.148138 242.12004,-145.406371 82.12392,-10.151972 165.54736,9.188096 234.66068,54.401418 36.19432,23.678003 68.4527,55.255313 92.96783,91.004953 76.12069,111.00446 76.12069,255.57298 0,366.57744 -67.92154,99.0479 -185.55567,155.28984 -308.13258,147.32092 z m 169.78582,-48.3409 c 12.80204,-6.19983 21.24453,-13.60679 25.82576,-22.65804 3.38161,-6.68115 4.57462,-12.08189 5.89075,-26.66748 0.55913,-6.19636 1.80683,-17.23051 2.77266,-24.52034 1.64169,-12.3909 1.77962,-15.63038 2.11765,-49.73338 0.46515,-46.92852 -0.88957,-106.38818 -3.24564,-142.45306 -2.26399,-34.65545 -6.68566,-70.46556 -14.32001,-115.97457 -3.33531,-19.88212 -5.07601,-26.1604 -9.94567,-35.87161 -9.22252,-18.39183 -23.71494,-30.83535 -45.82038,-39.34243 -12.0411,-4.63391 -23.08767,-5.22934 -106.72433,-5.75265 -45.98105,-0.28771 -68.49289,-0.17711 -79.00983,0.38813 -28.43696,1.52839 -41.69469,4.07689 -54.04136,10.38825 -9.79902,5.00905 -23.24714,16.60221 -28.97426,24.97772 -7.19675,10.52474 -9.55834,18.11395 -14.47709,46.52347 -2.07238,11.96959 -4.83057,26.87698 -6.12931,33.12752 -2.78629,13.4098 -3.96099,22.26026 -5.80836,43.7616 -5.90112,68.68274 -8.03193,172.59 -4.07024,198.4822 1.05788,6.91396 4.02927,13.9735 8.8902,21.1217 7.8178,11.4964 21.91401,23.92219 32.44126,28.59694 16.87789,7.49482 46.77203,12.39546 98.8478,16.20445 76.30703,5.58135 98.28968,9.99198 141.28967,28.34857 13.82083,5.90008 22.25889,9.01307 31.08021,11.46621 11.83228,3.29045 15.91151,3.21846 23.41052,-0.4132 z M 360.9339,553.18472 c -3.31155,-1.48067 -5.39565,-3.57866 -6.80802,-6.85343 -0.83236,-1.9299 -1.05876,-5.20824 -1.05876,-15.33096 l 0,-12.87613 -13.85237,-0.23371 c -15.63231,-0.26376 -17.35366,-0.70561 -21.34066,-5.4779 -1.90326,-2.27811 -2.08866,-2.93032 -2.08866,-7.34735 0,-4.41703 0.1854,-5.06923 2.08866,-7.34735 3.987,-4.77229 5.70835,-5.21414 21.34066,-5.47789 l 13.85237,-0.23372 0.0151,-13.02052 c 0.013,-11.23959 0.18776,-13.38309 1.2779,-15.67137 4.76651,-10.00522 18.64223,-10.00522 23.40874,0 1.09014,2.28828 1.26493,4.43178 1.2779,15.67137 l 0.015,13.02052 13.85237,0.23372 c 15.63231,0.26375 17.35366,0.7056 21.34066,5.47789 1.90326,2.27812 2.08866,2.93032 2.08866,7.34735 0,4.41703 -0.1854,5.06924 -2.08866,7.34735 -3.987,4.77229 -5.70835,5.21414 -21.34066,5.4779 l -13.85237,0.23371 -0.015,13.02052 c -0.013,11.2396 -0.18776,13.3831 -1.2779,15.67137 -3.09431,6.49515 -10.38414,9.25289 -16.83488,6.36863 z m 153.97981,-10.4412 c -4.83982,-1.43939 -10.84661,-7.37561 -12.31696,-12.17222 -2.34335,-7.64457 -0.78013,-13.64912 5.01497,-19.26331 3.00372,-2.90994 4.78933,-4.05321 7.58809,-4.85841 7.89092,-2.27019 14.08897,-0.75578 19.88408,4.85841 5.7951,5.61419 7.35832,11.61874 5.01497,19.26331 -1.52675,4.98062 -7.46195,10.73052 -12.60306,12.2096 -4.47398,1.28715 -8.16539,1.27619 -12.58209,-0.0374 z m 64.98644,-46.38982 c -4.83982,-1.4394 -10.84661,-7.37562 -12.31695,-12.17223 -2.34335,-7.64457 -0.78014,-13.64912 5.01497,-19.26331 3.00371,-2.90994 4.78933,-4.05321 7.58809,-4.85841 7.89091,-2.27019 14.08896,-0.75578 19.88407,4.85841 5.79511,5.61419 7.35832,11.61874 5.01497,19.26331 -1.52675,4.98062 -7.46194,10.73052 -12.60306,12.2096 -4.47398,1.28715 -8.16539,1.27619 -12.58209,-0.0374 z M 447.46848,442.68486 c -53.20308,-4.81474 -95.90302,-27.85267 -116.5312,-62.87216 -30.68035,-52.0846 2.56491,-113.23405 74.00726,-136.12476 18.86176,-6.04346 34.20085,-8.29304 56.54733,-8.29304 17.63872,0 25.72114,0.7975 40.62362,4.00835 64.54823,13.9074 107.61935,60.98493 100.58994,109.94666 -6.61588,46.0815 -52.2043,82.69494 -114.33739,91.82784 -8.81984,1.29642 -33.2714,2.19743 -40.89956,1.50711 z m 97.4003,-39.48911 c 3.75747,-1.07552 9.42439,-6.56553 10.53458,-10.2057 1.19493,-3.91806 1.19493,-103.9502 0,-107.86825 -1.11019,-3.64018 -6.77711,-9.13018 -10.53458,-10.2057 -4.07203,-1.16556 -164.73399,-1.16556 -168.80602,0 -3.75747,1.07552 -9.42439,6.56552 -10.53457,10.2057 -1.19494,3.91805 -1.19494,103.95019 0,107.86825 1.02953,3.37575 6.75562,9.11998 10.11317,10.14523 3.60418,1.10056 165.39177,1.15837 169.22742,0.0604 z M 399.2417,160.47873 c 3.38614,-1.61595 9.23492,-5.21416 12.99729,-7.99603 3.76237,-2.78187 9.14941,-6.18829 11.97119,-7.56982 17.08906,-8.36672 39.58301,-11.22505 56.09356,-7.12788 14.04238,3.48469 24.76515,8.38676 39.28372,17.95917 12.59977,8.30728 19.70399,9.66084 24.79898,4.72491 1.95538,-1.89434 2.27187,-2.65366 2.27187,-5.45066 0,-4.96448 -2.69415,-9.53186 -9.52627,-16.14983 -12.17135,-11.78983 -31.05933,-20.89628 -49.98763,-24.1005 -14.62526,-2.4758 -37.29274,-2.01927 -51.95045,1.0463 -25.32937,5.29748 -56.20693,26.55888 -56.11724,38.64072 0.008,1.11303 0.61358,3.30131 1.34515,4.86285 2.66716,5.69306 8.56085,6.05658 18.81983,1.16077 z m -26.09424,-25.06008 c 2.68848,-1.23991 7.04295,-3.84836 9.67661,-5.79658 11.21854,-8.29873 13.71809,-10.01292 18.85254,-12.92907 15.1332,-8.59501 30.90584,-12.63479 55.50999,-14.21753 17.00866,-1.09413 32.87262,0.50232 45.69137,4.5981 8.29527,2.65046 20.82083,9.14553 33.82485,17.53973 13.87407,8.95581 18.166,11.2176 23.5865,12.42974 6.26039,1.39996 11.52271,-1.255 12.9964,-6.55698 2.19396,-7.89339 -6.19964,-17.13517 -26.52544,-29.20584 -9.7671,-5.800293 -25.82612,-13.361043 -33.86148,-15.942337 -12.81569,-4.116936 -30.30494,-6.065005 -54.45001,-6.065005 -29.3959,0 -39.50455,1.956177 -59.89116,11.58986 -21.01195,9.929182 -39.89578,23.633932 -43.23654,31.378472 -1.40417,3.25515 -1.37449,9.28055 0.0588,11.92109 2.55286,4.70338 9.26444,5.17796 17.76764,1.25635 z m -31.02542,-26.78271 c 2.0693,-1.32787 7.30242,-5.09823 11.62915,-8.37859 13.82672,-10.482878 26.69425,-17.898985 43.26984,-24.938254 15.15516,-6.436047 28.61282,-10.634865 41.8966,-13.071834 7.47605,-1.371514 31.6804,-1.910888 40.77932,-0.908735 32.78003,3.610386 64.1451,16.703517 92.27187,38.518254 9.65726,7.490039 15.49185,11.226269 17.53124,11.226269 3.86661,0 11.34147,-5.34693 12.58729,-9.00398 1.09242,-3.206748 -0.33594,-6.747498 -4.77274,-11.831028 -18.76772,-21.5034 -64.88782,-44.17461 -105.03969,-51.634253 -14.65728,-2.723112 -21.49203,-3.316045 -32.6177,-2.829672 -15.64972,0.684146 -44.25955,5.846724 -57.70145,10.412097 -16.7777,5.69833 -37.50388,15.98876 -51.62492,25.631463 -7.87094,5.374763 -20.00308,17.01238 -23.19089,22.245604 -4.54473,7.460799 -3.34403,12.917379 3.53659,16.072029 4.39758,2.01621 6.35323,1.75831 11.44549,-1.50937 z"
       id="path3452"
       inkscape:connector-curvature="0" />
    <path
       style="fill:#505050"
       d="m 448.15255,687.8959 c -7.51691,-0.43025 -24.49074,-2.2399 -34.20339,-3.64657 -54.43754,-7.8841 -108.19594,-29.59591 -152.68934,-61.66781 -25.53604,-18.40698 -51.09615,-43.15941 -69.994,-67.78225 -33.3476,-43.45004 -55.7077,-95.32329 -63.85905,-148.14674 -3.1333,-20.30481 -3.78198,-28.82993 -3.78198,-49.70339 0,-20.87345 0.64868,-29.39857 3.78198,-49.70339 7.11439,-46.10363 25.19812,-91.96322 51.74255,-131.21694 13.74125,-20.32046 26.35115,-35.34019 44.26643,-52.72602 28.25531,-27.420279 55.35316,-46.259261 91.00154,-63.266161 38.46273,-18.349548 72.61516,-27.759109 119.36984,-32.888371 14.81312,-1.625087 48.12111,-1.625087 62.93423,0 46.02089,5.048761 80.2744,14.389675 118.0017,32.178993 36.08677,17.015773 63.37968,35.893536 92.03357,63.657109 18.19537,17.63 30.75498,32.56677 44.60253,53.04445 26.54443,39.25372 44.62817,85.11331 51.74256,131.21694 3.13329,20.30482 3.78198,28.82994 3.78198,49.70339 0,20.87346 -0.64869,29.39858 -3.78198,49.70339 -8.15135,52.82345 -30.51145,104.6967 -63.85905,148.14674 -18.99934,24.75507 -44.21059,49.13762 -70.29808,67.98737 -56.89825,41.11234 -127.14588,64.1516 -198.55984,65.12207 -9.78217,0.13293 -19.78666,0.12716 -22.2322,-0.0128 z M 613.2572,638.68146 c 13.30087,-6.59731 19.96402,-12.70815 25.01698,-22.94334 3.06123,-6.20078 4.51971,-13.13985 5.502,-26.17712 0.37074,-4.92063 1.46306,-15.06012 2.42737,-22.5322 2.86154,-22.17312 3.40498,-43.51365 2.45545,-96.42457 -1.80413,-100.53212 -4.51711,-134.18564 -16.87178,-209.28882 -4.01498,-24.40672 -5.83507,-31.13267 -11.24543,-41.55629 -7.68788,-14.81152 -21.8587,-27.6164 -39.1865,-35.4093 -13.06495,-5.87576 -18.70849,-6.74357 -50.0885,-7.70215 -35.04718,-1.0706 -132.81067,-1.14138 -147.07458,-0.10648 -31.58679,2.29175 -44.80927,6.0157 -58.87282,16.58083 -11.6015,8.71552 -18.6251,16.32042 -23.12523,25.03916 -4.57122,8.85648 -6.90401,17.71975 -10.71384,40.70661 -2.06027,12.43076 -5.98346,33.43705 -6.78844,36.34799 -5.79255,20.94676 -11.51249,124.79069 -10.79237,195.93251 0.35783,35.35156 0.87828,42.54751 3.66675,50.69746 4.93046,14.41045 20.69215,31.94323 36.509,40.6114 7.3253,4.01452 24.14083,8.51489 42.5307,11.38256 19.24493,3.00102 30.93734,4.1503 77.86523,7.65364 59.42648,4.4364 81.3432,9.46908 129.43688,29.72221 9.37379,3.94748 19.5981,7.47738 28.24075,9.75001 9.0933,2.39113 12.40513,2.03276 21.10838,-2.28411 z M 362.64407,553.65862 c -3.37024,-0.9278 -6.42841,-3.35695 -7.94152,-6.30809 -1.09994,-2.14528 -1.34455,-4.55454 -1.63543,-16.10817 l -0.34203,-13.58559 -14.41778,-0.33136 c -13.83302,-0.31792 -14.51525,-0.39613 -16.82134,-1.92837 -4.07329,-2.70644 -5.70054,-5.6557 -5.70054,-10.3318 0,-4.6761 1.62725,-7.62535 5.70054,-10.3318 2.30609,-1.53224 2.98832,-1.61045 16.82134,-1.92837 l 14.41778,-0.33135 0.34203,-13.5856 c 0.37912,-15.05865 0.90176,-17.14565 5.05576,-20.18903 6.47672,-4.74508 15.78734,-2.77676 19.3034,4.08086 1.09994,2.14529 1.34454,4.55454 1.63542,16.10817 l 0.34203,13.5856 14.41778,0.33135 c 13.83302,0.31792 14.51526,0.39613 16.82134,1.92837 4.0733,2.70645 5.70055,5.6557 5.70055,10.3318 0,4.6761 -1.62725,7.62536 -5.70055,10.3318 -2.30608,1.53224 -2.98832,1.61045 -16.82134,1.92837 l -14.41778,0.33136 -0.34203,13.58559 c -0.29088,11.55363 -0.53548,13.96289 -1.63542,16.10817 -1.56477,3.05188 -4.59986,5.38045 -8.28356,6.35526 -3.15329,0.83444 -3.30005,0.83338 -6.49865,-0.0472 z M 517.3438,543.12853 c -14.57127,-2.81017 -20.38568,-20.27435 -10.41337,-31.2776 5.39928,-5.95746 15.33202,-7.78328 22.8799,-4.20573 6.95217,3.29519 10.89257,9.43412 10.89257,16.97004 0,12.02499 -11.15605,20.86673 -23.3591,18.51329 z m 64.98644,-46.38983 c -14.57127,-2.81017 -20.38568,-20.27435 -10.41337,-31.2776 5.39928,-5.95746 15.33202,-7.78327 22.8799,-4.20573 6.95217,3.29519 10.89257,9.43412 10.89257,16.97004 0,12.02499 -11.15605,20.86673 -23.3591,18.51329 z M 449.14536,442.45126 c -46.25542,-3.25372 -87.85487,-22.65198 -110.1684,-51.37268 -12.8606,-16.5534 -18.91576,-33.20649 -18.91576,-52.02266 0,-18.81616 6.05516,-35.46925 18.91576,-52.02266 20.47057,-26.34854 57.9059,-45.23623 99.94067,-50.42425 11.84729,-1.46222 33.3012,-1.46222 45.14848,0 42.03477,5.18802 79.4701,24.07571 99.94068,50.42425 12.86059,16.55341 18.91575,33.2065 18.91575,52.02266 0,18.81617 -6.05516,35.46926 -18.91575,52.02266 -20.41485,26.27681 -58.69915,45.61447 -99.59865,50.30795 -11.20103,1.28538 -25.84157,1.72745 -35.26278,1.06473 z m 97.85499,-40.02512 c 4.07589,-1.86209 5.93373,-3.69451 7.8093,-7.70242 1.36719,-2.92158 1.39557,-4.05329 1.39557,-55.6678 0,-51.6145 -0.0284,-52.74621 -1.39557,-55.66779 -1.87557,-4.00792 -3.73341,-5.84034 -7.8093,-7.70242 l -3.42034,-1.5626 -83.11424,0 -83.11424,0 -3.42034,1.5626 c -4.07589,1.86208 -5.93372,3.6945 -7.8093,7.70242 -1.36719,2.92158 -1.39557,4.05329 -1.39557,55.66779 0,51.61451 0.0284,52.74622 1.39557,55.6678 1.87558,4.00791 3.73341,5.84033 7.8093,7.70242 l 3.42034,1.56259 83.11424,0 83.11424,0 3.42034,-1.56259 z M 398.94257,161.03038 c 3.17442,-1.48018 9.15781,-5.15394 13.29642,-8.16389 8.74422,-6.35957 15.21491,-9.68387 24.28441,-12.47611 13.15395,-4.04971 28.65349,-5.24215 40.30535,-3.10084 7.56496,1.39025 18.18552,5.04954 26.17754,9.0194 5.93811,2.94964 9.47714,5.08744 20.57497,12.4286 9.9169,6.55997 20.535,6.12555 22.93796,-0.93847 3.91858,-11.51952 -16.84848,-30.1549 -43.85439,-39.35288 -12.6141,-4.29625 -17.97345,-4.99468 -38.43669,-5.00912 -14.94467,-0.0105 -19.71016,0.21414 -24.96847,1.17722 -18.01106,3.2988 -37.5684,12.85896 -50.5982,24.73379 -6.82707,6.22191 -9.58432,10.53593 -9.59335,15.00983 -0.007,3.69167 1.24206,6.38089 3.9133,8.42226 2.97953,2.27697 8.66114,1.6541 15.96115,-1.74979 z m -28.39236,-24.17275 c 3.97538,-1.44095 12.28047,-6.65042 20.25289,-12.70386 13.98576,-10.61937 30.24657,-17.02204 51.19284,-20.15709 5.99657,-0.89751 11.93245,-1.1741 24.96847,-1.16345 15.08377,0.0123 17.92408,0.18759 24.07126,1.48528 15.26842,3.22322 27.53687,8.74151 45.51697,20.47329 14.97391,9.77029 20.0489,12.24638 25.83923,12.60692 3.6329,0.22622 4.85436,0.0278 6.67592,-1.08453 8.06137,-4.92259 5.9384,-14.69568 -5.13013,-23.61657 -12.43861,-10.02513 -36.88253,-23.211759 -51.3362,-27.694058 -11.66681,-3.618053 -24.48087,-5.304918 -46.32111,-6.097793 -20.38846,-0.740169 -39.81832,1.151186 -51.98616,5.060473 -13.75621,4.419599 -37.94476,17.711818 -49.20962,27.041918 -9.85288,8.16065 -13.28155,15.48175 -10.39017,22.18575 2.20723,5.11774 8.09258,6.47763 15.85581,3.66372 z m -27.14963,-28.83672 c 2.62807,-1.7785 9.2393,-6.51405 14.69164,-10.523456 23.34573,-17.167425 56.84432,-31.305324 84.24575,-35.555476 8.5657,-1.328598 33.84891,-1.144689 43.41392,0.315791 30.6679,4.682676 59.22388,17.250355 86.28835,37.976091 11.39196,8.72386 14.86763,10.84919 17.7423,10.84919 2.91711,0 7.56168,-2.68084 10.74611,-6.20264 4.43638,-4.906342 2.50968,-9.53506 -8.32734,-20.005732 -13.98124,-13.508599 -37.10936,-26.629108 -64.9822,-36.864183 -29.88827,-10.97516 -59.16266,-14.919667 -82.8911,-11.168962 -15.81998,2.500631 -32.3409,5.945981 -40.05797,8.353874 -18.88911,5.893817 -43.3482,18.317462 -58.96979,29.952872 -9.68675,7.214964 -18.87536,17.756051 -20.65891,23.699702 -0.91904,3.062719 -0.92974,3.794699 -0.0836,5.719809 0.53368,1.2142 1.70262,2.84236 2.59764,3.61815 5.28263,4.57885 9.29543,4.53809 16.24518,-0.16503 z"
       id="path3450"
       inkscape:connector-curvature="0" />
    <path
       style="fill:#2e2e2e"
       d="M 447.46848,687.61279 C 371.05677,682.65062 300.96145,655.6451 244.64238,609.47027 233.92842,600.68612 210.37457,577.52063 201.6836,567.21979 158.88356,516.49175 133.24243,457.14445 125.58151,391.0788 c -3.48042,-30.01422 -2.6505,-55.74432 2.83228,-87.80932 9.87516,-57.75307 34.77194,-110.96202 73.26981,-156.59098 8.69307,-10.30333 32.24812,-33.46946 42.95878,-42.24949 46.29816,-37.952816 103.85705,-63.870772 163.15017,-73.464234 42.21083,-6.829595 72.71256,-6.829595 114.92339,0 51.25312,8.292613 103.23256,29.602544 145.01822,59.452895 18.60379,13.289959 46.59887,39.069959 61.0949,56.260829 42.81859,50.77864 68.4372,110.07709 76.09792,176.14098 3.48044,30.01422 2.65053,55.74432 -2.83228,87.80932 -9.87472,57.75048 -34.74863,110.91359 -73.26564,156.59099 -9.32275,11.05586 -33.47019,34.61217 -44.67312,43.57951 -57.90738,46.35173 -124.73294,71.75973 -202.14203,76.8572 -9.62116,0.63356 -24.40416,0.61486 -34.54543,-0.0437 z m 163.08227,-47.26075 c 13.50142,-6.0433 22.98043,-14.22399 27.78765,-23.98166 3.3211,-6.74114 4.46998,-12.03022 5.82346,-26.80938 0.55078,-6.01411 1.79483,-17.04826 2.76457,-24.52034 1.62713,-12.53739 1.79202,-16.24443 2.13718,-48.04661 0.48308,-44.50954 -0.95385,-108.00042 -3.23967,-143.14575 -1.53213,-23.55702 -4.03872,-47.6816 -7.5743,-72.89831 -2.57953,-18.39791 -8.5246,-54.87487 -9.87711,-60.60259 -6.15046,-26.04644 -21.77076,-44.95084 -46.231,-55.95087 -13.04341,-5.86577 -17.4405,-6.72451 -39.92966,-7.79822 -23.11738,-1.10371 -151.86978,-1.14979 -163.83424,-0.0587 -20.17387,1.83984 -33.3607,4.83985 -43.05264,9.79449 -10.02302,5.12389 -23.81789,17.05831 -29.75599,25.74294 -7.17261,10.49012 -9.46995,17.96263 -14.46639,47.0545 -2.05942,11.99106 -4.80567,26.90208 -6.10277,33.13559 -2.56208,12.31267 -3.83704,21.57266 -5.43838,39.49891 -3.93292,44.02699 -6.08385,96.09888 -6.11823,148.11609 -0.0322,48.64347 0.67883,56.51181 6.10784,67.5952 7.1539,14.60477 24.91129,31.5526 39.25584,37.4662 17.55969,7.23903 46.68511,11.76055 102.32496,15.88523 41.92332,3.10784 56.83478,4.80164 76.26344,8.66275 19.26914,3.82942 36.66258,9.40918 59.06046,18.94641 22.52348,9.59072 36.58396,14.05219 44.45975,14.10734 3.89097,0.0272 5.48502,-0.33562 9.63523,-2.19328 z M 360.9339,552.67101 c -6.31937,-3.23474 -6.77672,-4.57808 -7.18271,-21.09729 l -0.34203,-13.91695 -14.02339,-0.34246 c -11.85029,-0.28939 -14.4269,-0.53491 -16.62726,-1.58436 -8.96523,-4.27593 -8.96523,-17.05348 0,-21.32941 2.20036,-1.04946 4.77697,-1.29497 16.62726,-1.58437 l 14.02339,-0.34245 0.34203,-13.91695 c 0.27589,-11.22581 0.55998,-14.3017 1.46912,-15.90665 4.71363,-8.32122 16.97457,-8.32122 21.68821,0 0.90914,1.60495 1.19322,4.68084 1.46911,15.90665 l 0.34204,13.91695 14.02339,0.34245 c 11.85028,0.2894 14.42689,0.53491 16.62726,1.58437 8.96523,4.27593 8.96523,17.05348 0,21.32941 -2.20037,1.04945 -4.77698,1.29497 -16.62726,1.58436 l -14.02339,0.34246 -0.34204,13.91695 c -0.35835,14.58117 -0.70583,16.28776 -3.86335,18.97461 -3.78728,3.22273 -9.6432,4.13804 -13.58038,2.12268 z m 153.59181,-10.65068 c -4.21836,-1.44236 -9.71156,-6.87772 -11.18511,-11.06733 -2.51392,-7.14763 -0.87921,-13.97317 4.62327,-19.30386 7.77799,-7.53516 18.98988,-7.53516 26.76787,0 7.77798,7.53516 7.77798,18.39704 0,25.9322 -5.47584,5.30489 -12.90221,6.93636 -20.20603,4.43899 z m 64.98645,-46.38983 c -4.21837,-1.44236 -9.71156,-6.87772 -11.18512,-11.06733 -2.51392,-7.14763 -0.87921,-13.97317 4.62327,-19.30386 7.77799,-7.53516 18.98989,-7.53516 26.76787,0 7.77799,7.53516 7.77799,18.39704 0,25.9322 -5.47584,5.30489 -12.90221,6.93636 -20.20602,4.43899 z M 443.70611,441.76248 c -22.31499,-2.39387 -41.1391,-7.52945 -59.55511,-16.24775 -58.46117,-27.67606 -80.2103,-83.09726 -50.94124,-129.80866 19.36485,-30.90499 57.80847,-52.36255 105.36584,-58.81066 8.61877,-1.16858 37.21377,-1.16858 45.83254,0 69.61654,9.43901 118.33823,51.5001 118.33823,102.16051 0,49.94627 -47.67002,91.86842 -115.73634,101.7813 -8.3083,1.20998 -35.27811,1.78624 -43.30392,0.92526 z m 100.23955,-37.75621 c 4.45641,-1.1994 8.39792,-4.18186 10.57943,-8.00527 l 2.05221,-3.59677 0,-53.34831 0,-53.3483 -2.05221,-3.59678 c -2.18151,-3.8234 -6.12302,-6.80587 -10.57943,-8.00526 -3.2911,-0.88576 -163.66868,-0.88576 -166.95978,0 -4.45641,1.19939 -8.39792,4.18186 -10.57943,8.00526 l -2.05221,3.59678 0,53.3483 0,53.34831 2.04286,3.57348 c 2.12632,3.71951 5.20939,6.17039 9.72494,7.73084 2.12806,0.7354 17.313,0.90226 84.0017,0.92306 51.25727,0.016 82.29948,-0.2156 83.82192,-0.62534 z M 399.2417,161.12859 c 3.38614,-1.61062 9.23492,-5.1964 12.99729,-7.96839 15.24391,-11.23122 31.37751,-16.4392 50.96305,-16.45105 18.48893,-0.0112 34.25663,5.36391 54.77643,18.67289 9.01549,5.84737 15.51564,8.7346 19.59436,8.7034 3.47222,-0.0266 7.37561,-2.25686 8.70699,-4.97496 6.70269,-13.6839 -23.94084,-38.05417 -55.71507,-44.30921 -18.11284,-3.56568 -46.44645,-2.7252 -61.58941,1.82698 -14.83401,4.4593 -31.68663,13.98293 -41.78656,23.61412 -7.27253,6.93501 -9.62214,11.85159 -8.16654,17.08853 2.23196,8.03009 8.74826,9.25401 20.21946,3.79769 z m -31.07823,-23.27962 c 5.87441,-1.68852 9.41892,-3.70584 19.92527,-11.34024 5.40564,-3.92798 12.15721,-8.41677 15.00352,-9.97509 16.86035,-9.23084 37.23611,-13.57032 63.87215,-13.60301 27.48324,-0.0337 42.567,4.7379 68.74882,21.74814 19.17579,12.45844 26.04238,15.08275 32.36975,12.37123 4.00569,-1.71659 5.93201,-4.61263 5.93549,-8.92341 0.003,-4.42981 -1.38479,-7.18871 -5.95194,-11.82739 -7.69029,-7.81077 -21.35937,-16.573477 -38.69743,-24.807393 -16.5255,-7.848024 -27.83466,-10.63608 -49.74943,-12.264754 -13.37913,-0.994319 -41.5394,-0.452391 -50.82278,0.978054 -21.43076,3.302195 -54.54263,20.387693 -69.46832,35.845173 -4.52365,4.68484 -5.569,7.11027 -5.57101,12.92599 -0.001,4.4129 1.7727,7.61302 4.96659,8.95814 2.90698,1.2243 4.94696,1.20583 9.43932,-0.0854 z M 337.4025,111.64065 c 3.00106,-0.99096 6.43653,-3.25837 17.55033,-11.58323 4.98764,-3.736008 11.91382,-8.506083 15.39153,-10.600163 19.92661,-11.998683 48.77065,-23.229271 67.88921,-26.433039 13.4731,-2.257736 33.48315,-2.385374 48.14897,-0.307125 28.62812,4.056801 59.68202,17.792721 85.66258,37.890697 14.38353,11.12678 16.86895,12.2565 21.70567,9.86602 6.93703,-3.42852 10.26638,-8.09277 9.00807,-12.619864 -2.01089,-7.234764 -15.98565,-20.073678 -32.69151,-30.034419 -25.12341,-14.97964 -55.19868,-26.147376 -82.46425,-30.621135 -14.58253,-2.392715 -32.98797,-2.384409 -47.44642,0.02141 -23.44757,3.90157 -32.88242,6.176235 -45.38191,10.941201 -23.98709,9.144188 -47.66135,23.395722 -60.20632,36.243259 -13.00995,13.323729 -14.25201,21.210628 -4.12321,26.181748 4.28887,2.10494 3.93771,2.05171 6.95726,1.05464 z"
       id="path3448"
       inkscape:connector-curvature="0" />
    <path
       style="fill:#000000"
       d="m 450.88882,687.7209 c -4.70297,-0.22545 -7.93519,-0.59897 -7.18271,-0.83006 0.83616,-0.25679 0.0932,-0.45005 -1.91073,-0.49703 -15.07994,-0.35356 -46.40965,-5.5176 -67.03796,-11.04979 -40.93883,-10.97915 -79.6139,-29.32879 -113.69742,-53.94449 -24.9823,-18.04265 -50.73661,-43.11127 -69.8151,-67.95632 -27.72025,-36.09884 -48.79324,-80.86909 -58.79938,-124.92119 -3.44012,-15.14518 -7.08404,-39.79423 -7.22106,-48.84637 -0.0334,-2.20428 -0.209,-2.77771 -0.57386,-1.87354 -0.29805,0.73861 -0.70138,-3.49528 -0.9312,-9.775 -0.46744,-12.77244 0.14789,-33.87209 0.9312,-31.93094 0.36486,0.90417 0.5405,0.33074 0.57386,-1.87353 0.0774,-5.11432 2.0277,-21.23015 3.82605,-31.61587 10.10564,-58.36143 35.30629,-111.44694 74.8751,-157.72542 8.47504,-9.91214 30.2432,-31.17907 40.71677,-39.77923 51.68552,-42.440519 114.15604,-68.606784 181.96112,-76.215849 6.39553,-0.717705 13.1678,-1.325878 15.04949,-1.351496 2.34279,-0.0319 2.99729,-0.207146 2.0763,-0.555947 -2.00371,-0.758853 19.77588,-1.354972 32.95991,-0.902132 6.48209,0.222645 10.85241,0.613389 10.09,0.902132 -0.92099,0.348801 -0.26649,0.524051 2.0763,0.555947 1.88169,0.02562 8.65396,0.633791 15.04949,1.351496 58.91005,6.610867 114.3133,27.36253 161.22468,60.387788 26.44234,18.615211 54.3323,45.394261 74.13392,71.181021 27.72025,36.09884 48.79323,80.86908 58.79938,124.92118 3.44012,15.14518 7.08404,39.79423 7.22106,48.84638 0.0334,2.20427 0.209,2.7777 0.57386,1.87353 0.29805,-0.7386 0.70138,3.49528 0.9312,9.775 0.46744,12.77245 -0.1479,33.8721 -0.9312,31.93094 -0.36486,-0.90417 -0.5405,-0.33074 -0.57386,1.87354 -0.13702,9.05214 -3.78094,33.70119 -7.22106,48.84637 -10.00615,44.0521 -31.07913,88.82235 -58.79938,124.92119 -19.3215,25.16152 -45.26457,50.29295 -71.18324,68.95622 -42.6457,30.70792 -93.55896,51.61606 -146.73254,60.25748 -10.7204,1.74221 -27.35557,3.63161 -32.6347,3.7066 -2.46149,0.035 -2.93781,0.18856 -1.91073,0.61613 0.93175,0.38789 -0.28836,0.58442 -3.82523,0.61613 -2.85635,0.0256 -9.32079,0.15648 -14.36542,0.29081 -5.04464,0.13432 -13.01994,0.0598 -17.72291,-0.16568 z m 157.48095,-45.79633 c 4.58646,-1.66883 14.68102,-7.50071 18.87208,-10.90286 11.03173,-8.95516 15.56641,-19.4115 17.26206,-39.80393 0.42432,-5.10288 1.68132,-16.58436 2.79335,-25.5144 1.83861,-14.76475 2.05901,-18.78938 2.43158,-44.4017 0.82121,-56.45325 -1.86794,-136.77365 -5.99071,-178.9322 -3.46891,-35.47243 -12.67682,-95.67797 -16.64021,-108.80133 -7.36074,-24.37251 -25.05254,-42.422 -51.47199,-52.51269 -12.35582,-4.71919 -24.82372,-5.42166 -107.81396,-6.07454 -112.1897,-0.88258 -126.79991,1.5644 -152.62234,25.56182 -10.79144,10.02876 -15.87109,18.61925 -19.87691,33.61501 -0.60502,2.26486 -2.7853,13.83713 -4.84508,25.71617 -2.05977,11.87904 -4.804,26.72631 -6.09828,32.99394 -3.3849,16.39168 -5.23631,33.16468 -7.54876,68.38891 -3.10185,47.24856 -4.81057,112.37349 -3.79059,144.47118 0.90843,28.58679 1.67395,33.45004 6.82882,43.3825 6.91673,13.32722 22.1814,28.25749 35.58456,34.80501 16.71825,8.16696 46.76443,13.051 108.08272,17.56899 68.72133,5.06344 90.86633,9.67924 133.85324,27.89973 20.83805,8.83244 36.45221,13.76001 43.80771,13.82498 1.96562,0.0174 5.18881,-0.55909 7.18271,-1.28459 z M 360.9339,552.21276 c -2.53382,-1.13598 -4.80582,-3.47408 -5.76901,-5.93685 -0.42481,-1.0862 -0.72963,-7.19352 -0.72963,-14.61867 0,-9.18133 -0.23949,-13.0573 -0.85508,-13.83932 -0.73362,-0.93192 -2.84719,-1.11466 -14.87848,-1.2864 -13.2555,-0.18922 -14.16197,-0.28365 -16.55416,-1.72469 -3.63588,-2.1902 -5.62918,-5.63972 -5.62918,-9.74159 0,-4.10187 1.9933,-7.55139 5.62918,-9.74159 2.39038,-1.43994 3.3087,-1.53619 16.55416,-1.73507 7.90892,-0.11875 14.32166,-0.49348 14.70746,-0.85943 0.39124,-0.37112 0.83048,-6.71487 1.0261,-14.81994 0.37442,-15.51317 0.4708,-15.87933 5.05192,-19.19285 2.69848,-1.9518 10.45599,-1.9518 13.15446,0 4.58112,3.31352 4.6775,3.67968 5.05193,19.19285 0.19562,8.10507 0.63485,14.44882 1.0261,14.81994 0.3858,0.36595 6.79854,0.74068 14.70745,0.85943 13.24547,0.19888 14.16379,0.29513 16.55417,1.73507 3.63587,2.1902 5.62918,5.63972 5.62918,9.74159 0,4.10187 -1.99331,7.55139 -5.62918,9.74159 -2.39038,1.43994 -3.3087,1.5362 -16.55417,1.73507 -7.90891,0.11875 -14.32165,0.49348 -14.70745,0.85943 -0.39125,0.37112 -0.83048,6.71488 -1.0261,14.81994 -0.37372,15.48351 -0.47833,15.88477 -4.99257,19.14992 -2.32052,1.67843 -8.85763,2.14596 -11.7671,0.84157 z m 152.88916,-11.08177 c -6.88243,-3.01465 -10.93765,-9.146 -10.92338,-16.51575 0.02,-10.31214 7.82845,-17.88027 18.44813,-17.88027 10.61967,0 18.42815,7.56813 18.44812,17.88027 0.0199,10.28291 -7.80913,17.86411 -18.44812,17.86411 -3.00698,0 -5.443,-0.43651 -7.52475,-1.34836 z m 64.98644,-46.38983 c -6.88243,-3.01465 -10.93765,-9.146 -10.92338,-16.51575 0.02,-10.31214 7.82845,-17.88027 18.44813,-17.88027 10.61967,0 18.42815,7.56813 18.44812,17.88027 0.0199,10.28291 -7.80913,17.86412 -18.44812,17.86412 -3.00697,0 -5.443,-0.43652 -7.52475,-1.34837 z M 439.51227,440.73978 c -61.46649,-7.2197 -109.4626,-43.16337 -117.53743,-88.0223 -1.35512,-7.52828 -1.35512,-19.79484 0,-27.32312 7.35953,-40.88514 48.28158,-74.9544 103.01425,-85.76352 22.26842,-4.39777 50.73715,-4.39777 73.00556,0 54.73267,10.80912 95.65472,44.87838 103.01425,85.76352 1.35513,7.52828 1.35513,19.79484 0,27.32312 -8.13089,45.17042 -56.34439,81.02963 -118.40159,88.06222 -10.7745,1.22102 -32.53134,1.20086 -43.09504,-0.0399 z m 103.70317,-36.13261 c 5.34536,-1.11059 9.53879,-4.20622 11.97834,-8.84252 l 2.06759,-3.92942 0,-52.77931 0,-52.7793 -2.06759,-3.92942 c -2.43955,-4.63631 -6.63298,-7.73193 -11.97834,-8.84252 -4.84795,-1.00724 -160.65139,-1.00724 -165.49933,0 -5.34537,1.11059 -9.5388,4.20621 -11.97835,8.84252 l -2.06758,3.92942 0,52.7793 0,52.77931 2.06078,3.90374 c 2.37035,4.49016 5.99216,7.32052 11.05439,8.63872 4.37756,1.13992 161.00857,1.35589 166.43009,0.22948 z M 399.65163,161.63899 c 3.16067,-1.52719 8.82499,-5.04782 12.58736,-7.82363 8.93897,-6.59502 13.51178,-9.02923 22.2322,-11.83473 13.96508,-4.49279 27.63326,-6.03809 39.07327,-4.41756 12.89437,1.82655 29.12178,8.46514 43.16225,17.65758 10.88964,7.12955 13.63344,8.3647 19.39504,8.73088 6.3177,0.40151 8.76671,-0.74758 10.7226,-5.03117 1.25863,-2.75651 1.32821,-3.49493 0.63219,-6.7096 -3.12131,-14.4164 -29.57064,-32.11779 -56.4066,-37.75051 -15.37571,-3.22728 -38.33787,-3.22518 -54.82317,0.005 -16.79187,3.29025 -37.37068,13.89156 -49.35534,25.42573 -6.38661,6.14622 -8.4938,9.82828 -8.4938,14.84153 0,3.96795 1.19887,6.63148 3.91973,8.70848 1.63005,1.24432 2.57351,1.41347 6.75122,1.21043 4.04923,-0.19681 5.81145,-0.69752 10.60305,-3.01273 z m -27.92582,-24.42884 c 4.31841,-1.66995 9.83305,-5.16009 19.28599,-12.20585 15.03452,-11.206 31.19998,-17.46285 52.56092,-20.34373 11.68832,-1.57638 36.06405,-1.5888 44.75073,-0.0228 15.91273,2.86865 27.7708,8.02426 47.25425,20.54505 16.67742,10.71753 20.71174,12.63784 27.15621,12.92619 5.51588,0.24681 8.28828,-0.96949 10.60674,-4.65337 2.68674,-4.26903 0.98792,-11.59984 -3.89374,-16.80245 -7.15178,-7.62199 -24.26448,-18.545942 -41.30805,-26.369164 -20.54971,-9.432588 -35.19245,-11.957308 -69.38326,-11.963158 -20.50028,-0.0035 -28.20717,0.599787 -38.00388,2.974939 -18.28487,4.433058 -45.34092,19.039743 -59.37372,32.053963 -5.92371,5.49373 -7.7353,8.65769 -8.14672,14.22831 -0.48513,6.56866 1.72187,10.07957 7.05284,11.21969 3.46476,0.741 6.51417,0.31788 11.44169,-1.58762 z m -30.18412,-27.01009 c 2.08208,-1.21462 7.75884,-5.20272 12.61501,-8.86243 14.97279,-11.283812 27.82841,-18.614782 45.57509,-25.989385 24.31792,-10.105263 40.55672,-13.578044 63.47025,-13.573553 15.24289,0.003 24.55103,1.109421 38.74785,4.605847 12.35624,3.04312 20.48576,6.034939 34.10537,12.551423 13.09756,6.266702 22.83173,12.29892 36.08321,22.360588 11.62941,8.83006 13.05839,9.77608 15.92538,10.54298 3.21767,0.8607 7.3059,-0.92931 11.88219,-5.20256 3.14054,-2.93257 3.4899,-3.54569 3.4899,-6.12457 0,-4.418533 -2.4663,-8.365075 -9.57695,-15.32492 C 583.09059,74.643459 570.66316,66.567095 550.37843,56.926242 529.06691,46.797385 510.95452,40.846161 489.19662,36.823611 c -9.80418,-1.812573 -33.13722,-2.542768 -41.90623,-1.311432 -10.67387,1.498815 -36.42994,6.665119 -41.89208,8.402961 -13.87345,4.413996 -29.66459,11.499282 -43.99419,19.739634 -23.15176,13.313609 -39.88681,30.781713 -38.13866,39.809266 0.89265,4.60967 6.47726,8.85989 11.71411,8.91514 1.97053,0.0208 3.87542,-0.61178 6.56212,-2.17912 z"
       id="path3446"
       inkscape:connector-curvature="0" />
  </g>
  <text
     xml:space="preserve"
     style="font-style:normal;font-variant:normal;font-weight:normal;font-stretch:normal;font-size:32px;line-height:125%;font-family:'American Captain';-inkscape-font-specification:'American Captain, Normal';text-align:start;letter-spacing:0px;word-spacing:0px;writing-mode:lr-tb;text-anchor:start;fill:#000000;fill-opacity:1;stroke:none;stroke-width:1px;stroke-linecap:butt;stroke-linejoin:miter;stroke-opacity:1;"
     x="167.7966"
     y="709.32202"
     id="text3347"
     sodipodi:linespacing="125%"><tspan
       sodipodi:role="line"
       id="tspan3349"
       x="167.7966"
       y="709.32202"
       style="font-style:normal;font-variant:normal;font-weight:normal;font-stretch:normal;font-size:56px;line-height:125%;font-family:'American Captain';-inkscape-font-specification:'American Captain, Normal';text-align:start;writing-mode:lr-tb;text-anchor:start;fill:#000000;">POKEMON POKEMINI</tspan></text>
  <path
     style="fill:#ffffff;fill-opacity:1"
     d="m 726.20437,765.7875 c -7.34111,-2.40946 -22.85182,-8.2999 -34.46825,-13.08983 -49.37966,-20.3613 -80.26839,-27.02191 -152.39616,-32.86159 -85.57351,-6.92829 -127.84406,-13.57811 -147.77308,-23.24702 -13.32502,-6.46486 -35.93996,-28.7973 -42.71685,-42.18321 -8.11676,-16.03247 -9.42004,-34.17489 -8.10887,-112.88043 1.9058,-114.40062 6.07496,-165.29051 19.37041,-236.44068 10.32779,-55.26882 14.11012,-65.17246 31.32254,-82.01481 14.34321,-14.03482 33.83356,-23.87625 55.48009,-28.01403 13.75354,-2.62901 32.59189,-3.08057 126.74779,-3.03818 75.55159,0.034 114.7313,0.75707 123.65323,2.28201 23.19379,3.96429 49.98292,19.11108 63.00548,35.62382 14.58961,18.49978 19.58678,35.65159 28.56466,98.04255 12.34524,85.79199 15.13936,130.59635 15.3397,245.97458 0.13176,75.87334 -0.39733,95.21373 -3.26017,119.17373 -4.25195,35.5859 -7.43982,46.34006 -16.93394,57.12595 -8.81186,10.01081 -27.84993,20.13524 -37.63325,20.01332 -3.76524,-0.0469 -12.85223,-2.05669 -20.19333,-4.46618 z M 465.34592,658.95971 c 5.05991,-4.35024 5.38579,-5.59081 6.01073,-22.88135 l 0.66075,-18.28175 16.11826,0 c 10.44984,0 18.02396,-0.98548 21.53718,-2.80224 12.01977,-6.21566 10.82508,-24.928 -1.87417,-29.35499 -3.41549,-1.19063 -12.86353,-2.1648 -20.99563,-2.1648 l -14.78564,0 -0.66075,-17.91801 c -0.52592,-14.26142 -1.39515,-18.72873 -4.2594,-21.89067 -5.03526,-5.55861 -14.61078,-6.98886 -21.82247,-3.25956 -7.1204,3.6821 -9.82853,11.9392 -9.84368,30.01341 l -0.0106,12.6867 -17.96432,0.66076 c -15.89199,0.58454 -18.53154,1.19401 -22.88136,5.28338 -3.54275,3.33063 -4.90009,6.52824 -4.8564,11.44068 0.11749,13.20885 7.0697,17.30534 29.36909,17.30534 l 16.33299,0 0.0107,12.87076 c 0.0133,16.12368 2.74505,26.21439 8.11486,29.97557 6.22686,4.36146 15.61204,3.6368 21.79996,-1.68323 l -4e-5,0 z m 195.25356,-11.70059 c 17.05536,-8.81967 17.05536,-34.85111 0,-43.67078 -22.3602,-11.56292 -46.72261,11.48583 -35.36186,33.45508 6.09637,11.78912 22.92042,16.64942 35.36186,10.2157 z m 83.5542,-59.4777 c 12.17847,-8.88824 14.3207,-25.21657 4.79376,-36.53868 -21.13852,-25.12171 -60.69421,5.62706 -40.41067,31.41339 8.25646,10.49638 24.96349,12.90053 35.61691,5.12529 z M 626.09843,518.71084 c 54.52549,-13.4848 95.07227,-41.97966 114.2464,-80.28839 23.20788,-46.36792 9.76365,-96.98888 -35.41048,-133.3296 -17.90706,-14.4055 -47.31004,-28.92793 -72.20696,-35.66377 -17.75012,-4.80227 -21.70245,-5.15313 -59.0654,-5.24338 -36.13883,-0.0873 -41.69564,0.34026 -57.00162,4.38582 -38.12535,10.077 -63.4413,23.98007 -86.9756,47.76546 -25.20738,25.47633 -34.30668,46.11663 -34.30668,77.81926 0,26.18043 7.46707,45.77053 26.27739,68.93954 22.34489,27.52263 70.70925,52.2868 115.7777,59.28209 19.46778,3.02169 70.0842,0.92827 88.66525,-3.66703 z"
     id="path3351"
     inkscape:connector-curvature="0"
     transform="scale(0.8,0.8)" />
  <path
     style="fill:#ffffff;fill-opacity:1"
     d="m 464.70288,470.99063 c -10.07958,-4.06762 -10.21462,-5.09925 -10.21462,-78.03726 l 0,-67.63877 5.12369,-5.34798 5.12369,-5.34798 107.01957,0 107.01958,0 5.12368,5.34798 5.12369,5.34798 0,68.20972 0,68.20971 -5.57367,5.57366 -5.57365,5.57367 -104.54287,-0.12087 c -57.49857,-0.0665 -106.38166,-0.86291 -108.62909,-1.76986 z"
     id="path3353"
     inkscape:connector-curvature="0"
     transform="scale(0.8,0.8)" />
  <path
     style="fill:#ffffff;fill-opacity:1"
     d="m 475.81337,170.49701 c -14.59989,-10.22616 14.38849,-37.93078 53.99269,-51.60159 14.077,-4.85918 17.53514,-5.26791 44.80932,-5.29612 33.51694,-0.0347 45.05541,2.28273 67.40447,13.53753 17.1246,8.62381 35.56163,26.46147 35.56163,34.40554 0,13.79012 -10.2954,13.38242 -36.22881,-1.43466 -34.00683,-19.42984 -53.39165,-24.61353 -78.81889,-21.07692 -19.50904,2.71345 -33.88219,8.0043 -48.93337,18.01266 -22.58375,15.01718 -31.18336,18.07895 -37.78704,13.45356 z"
     id="path3355"
     inkscape:connector-curvature="0"
     transform="scale(0.8,0.8)" />
  <path
     style="fill:#ffffff;fill-opacity:1"
     d="m 444.47767,139.09388 c -2.27045,-1.35759 -3.33687,-4.38218 -3.33687,-9.46405 0,-5.98842 1.31818,-8.78699 6.6504,-14.11921 16.30678,-16.306781 54.59486,-36.909014 78.46118,-42.218767 11.7021,-2.603469 21.11465,-3.003493 51.82883,-2.202668 44.60558,1.163021 53.99465,3.12784 83.33132,17.43845 31.83397,15.528825 50.49099,30.995065 50.49099,41.855885 0,4.59457 -5.58561,8.81139 -11.67157,8.81139 -6.66782,0 -10.69921,-1.9709 -39.57443,-19.34752 -12.25447,-7.37453 -28.43026,-15.27271 -37.1822,-18.15501 -14.05254,-4.627951 -18.14768,-5.097728 -44.09299,-5.058153 -44.95122,0.06857 -63.75698,5.488813 -98.09239,28.272473 -11.84294,7.85852 -22.50364,14.29993 -23.69045,14.31425 -1.18681,0.0143 -3.87394,0.44052 -5.9714,0.94711 -2.09746,0.50659 -5.31515,0.0232 -7.15042,-1.07418 z"
     id="path3357"
     inkscape:connector-curvature="0"
     transform="scale(0.8,0.8)" />
  <path
     style="fill:#ffffff;fill-opacity:1"
     d="m 407.24304,103.81137 c -5.21559,-3.65315 -5.33788,-7.598229 -0.48239,-15.561616 11.71655,-19.216035 50.28828,-44.516826 88.72338,-58.19732 35.82239,-12.750538 86.56247,-17.160182 118.59216,-10.306435 46.82791,10.020289 93.60604,32.067968 119.1362,56.151829 15.25445,14.39027 16.90151,18.039471 10.98477,24.337552 -8.81787,9.38619 -10.06143,9.03526 -36.92067,-10.418701 -42.60512,-30.858596 -86.4876,-45.944878 -133.6145,-45.935106 -42.00784,0.0087 -88.98339,16.895748 -133.09225,47.844746 -11.74629,8.241798 -23.09659,15.000441 -25.22289,15.019211 -2.12629,0.0187 -5.773,-1.3016 -8.10381,-2.93416 z"
     id="path3359"
     inkscape:connector-curvature="0"
     transform="scale(0.8,0.8)" />
</svg>
